<svg width="15" height="15" viewBox="0 0 15 15" fill="none" xmlns="http://www.w3.org/2000/svg">
<path d="M7.5 0C3.35781 0 0 3.35781 0 7.5C0 11.6422 3.35781 15 7.5 15C11.6422 15 15 11.6422 15 7.5C15 3.35781 11.6422 0 7.5 0ZM3.5 5.15625L11.5 5.15625C11.8117 5.15625 11.6695 5.55625 11.5 5.65859C11.3305 5.76016 7.89609 7.17969 7.80781 7.23203C7.71953 7.28438 7.60703 7.31016 7.49297 7.31016C7.38321 7.3124 7.27482 7.28544 7.17891 7.23203L3.5 5.65859C3.33047 5.55625 3.18906 5.15625 3.5 5.15625ZM11.5 10C11.5 10.1641 11.3031 10.3906 11.1531 10.3906H7.5L3.84688 10.3906C3.69688 10.3906 3.5 10.1641 3.5 10V6.60469C3.5 6.53281 3.49844 6.43985 3.63438 6.51875L7.17891 8.09219C7.27312 8.14978 7.38275 8.17705 7.49297 8.17031C7.60703 8.17031 7.68984 8.16172 7.80781 8.09219L11.3656 6.41406C11.5016 6.33438 11.5 6.42813 11.5 6.5L11.5 10Z" fill="#E8E8E8"/>
</svg>
