<svg width="12" height="12" viewBox="0 0 25 25" fill="none" xmlns="http://www.w3.org/2000/svg">
<g clip-path="url(#clip0_24_125)">
<path d="M12.5061 0.189331C7.36569 0.189331 5.86232 0.194634 5.5701 0.218876C4.51521 0.306562 3.85879 0.472656 3.14366 0.828706C2.59254 1.10237 2.15789 1.4196 1.72893 1.86428C0.9477 2.67524 0.47423 3.67294 0.302833 4.85889C0.219503 5.43463 0.195261 5.55205 0.190337 8.49287C0.188443 9.47314 0.190337 10.7633 0.190337 12.4937C0.190337 17.6299 0.196018 19.1317 0.220639 19.4234C0.305864 20.4499 0.466844 21.0957 0.807742 21.8021C1.45924 23.1544 2.70352 24.1695 4.16938 24.5483C4.67694 24.6789 5.23753 24.7509 5.95721 24.785C6.26212 24.7982 9.36998 24.8077 12.4797 24.8077C15.5895 24.8077 18.6992 24.8039 18.9966 24.7888C19.8299 24.7496 20.3138 24.6846 20.8488 24.5464C22.3241 24.1657 23.5457 23.1657 24.2104 21.7945C24.5447 21.1052 24.7142 20.4347 24.7909 19.4619C24.8076 19.2497 24.8146 15.8678 24.8146 12.4905C24.8146 9.11255 24.807 5.73689 24.7904 5.52478C24.7127 4.53617 24.5432 3.87142 24.1981 3.16879C23.915 2.59361 23.6006 2.16408 23.1442 1.72489C22.3296 0.946884 21.3334 0.473413 20.1464 0.302206C19.5712 0.219065 19.4566 0.194445 16.5135 0.189331H12.5061Z" fill="#171512"/>
<path d="M12.5004 3.40894C10.0315 3.40894 9.72168 3.41973 8.75201 3.46386C7.78424 3.50818 7.12365 3.66139 6.54564 3.88619C5.94774 4.11838 5.44056 4.42898 4.93527 4.93446C4.4296 5.43975 4.11901 5.94693 3.88606 6.54464C3.66069 7.12284 3.50728 7.78361 3.46372 8.75101C3.42035 9.72068 3.40899 10.0307 3.40899 12.4996C3.40899 14.9684 3.41997 15.2773 3.46391 16.247C3.50842 17.2148 3.66163 17.8754 3.88625 18.4534C4.11863 19.0513 4.42922 19.5584 4.9347 20.0637C5.4398 20.5694 5.94698 20.8808 6.5445 21.1129C7.12289 21.3377 7.78367 21.491 8.75125 21.5353C9.72092 21.5794 10.0306 21.5902 12.4992 21.5902C14.9683 21.5902 15.2772 21.5794 16.2469 21.5353C17.2146 21.491 17.876 21.3377 18.4544 21.1129C19.0521 20.8808 19.5585 20.5694 20.0636 20.0637C20.5693 19.5584 20.8799 19.0513 21.1128 18.4536C21.3363 17.8754 21.4897 17.2146 21.5351 16.2472C21.5787 15.2775 21.5901 14.9684 21.5901 12.4996C21.5901 10.0307 21.5787 9.72087 21.5351 8.7512C21.4897 7.78342 21.3363 7.12284 21.1128 6.54483C20.8799 5.94693 20.5693 5.43975 20.0636 4.93446C19.5579 4.42879 19.0523 4.11819 18.4538 3.88619C17.8743 3.66139 17.2133 3.50818 16.2455 3.46386C15.2759 3.41973 14.9672 3.40894 12.4975 3.40894H12.5004ZM11.6849 5.04714C11.9269 5.04676 12.197 5.04714 12.5004 5.04714C14.9276 5.04714 15.2153 5.05586 16.1738 5.09941C17.0601 5.13994 17.5411 5.28805 17.8616 5.41247C18.2858 5.57724 18.5883 5.7742 18.9062 6.09238C19.2244 6.41055 19.4214 6.71357 19.5865 7.1378C19.711 7.45787 19.8592 7.93891 19.8996 8.82525C19.9431 9.78355 19.9526 10.0714 19.9526 12.4975C19.9526 14.9235 19.9431 15.2114 19.8996 16.1697C19.8591 17.0561 19.711 17.5371 19.5865 17.8572C19.4218 18.2814 19.2244 18.5835 18.9062 18.9015C18.5881 19.2196 18.286 19.4166 17.8616 19.5814C17.5415 19.7064 17.0601 19.8541 16.1738 19.8946C15.2154 19.9382 14.9276 19.9476 12.5004 19.9476C10.073 19.9476 9.78531 19.9382 8.82701 19.8946C7.94067 19.8537 7.45962 19.7056 7.13899 19.5812C6.71476 19.4164 6.41174 19.2194 6.09357 18.9013C5.77539 18.5831 5.57843 18.2808 5.41328 17.8564C5.28886 17.5363 5.14057 17.0553 5.10023 16.169C5.05667 15.2107 5.04795 14.9228 5.04795 12.4952C5.04795 10.0676 5.05667 9.78128 5.10023 8.82298C5.14075 7.93664 5.28886 7.45559 5.41328 7.13515C5.57805 6.71092 5.77539 6.4079 6.09357 6.08973C6.41174 5.77155 6.71476 5.57459 7.13899 5.40944C7.45943 5.28445 7.94067 5.13672 8.82701 5.09601C9.66562 5.05813 9.99061 5.04676 11.6849 5.04487V5.04714ZM17.3529 6.55657C16.7506 6.55657 16.262 7.04462 16.262 7.64706C16.262 8.24932 16.7506 8.73794 17.3529 8.73794C17.9551 8.73794 18.4438 8.24932 18.4438 7.64706C18.4438 7.04481 17.9551 6.55619 17.3529 6.55619V6.55657ZM12.5004 7.83115C9.92224 7.83115 7.83196 9.92143 7.83196 12.4996C7.83196 15.0777 9.92224 17.167 12.5004 17.167C15.0785 17.167 17.168 15.0777 17.168 12.4996C17.168 9.92143 15.0785 7.83115 12.5004 7.83115ZM12.5004 9.46936C14.1738 9.46936 15.5306 10.8259 15.5306 12.4996C15.5306 14.173 14.1738 15.5298 12.5004 15.5298C10.8268 15.5298 9.47017 14.173 9.47017 12.4996C9.47017 10.8259 10.8268 9.46936 12.5004 9.46936Z" fill="white"/>
</g>
<defs>
<clipPath id="clip0_24_125">
<rect width="25" height="24.9992" fill="white"/>
</clipPath>
</defs>
</svg>
