<svg width="12" height="12" viewBox="0 0 25 25" fill="none" xmlns="http://www.w3.org/2000/svg">
<g clip-path="url(#clip0_73_255)">
<path d="M12.506 0.189392C7.36564 0.189392 5.86228 0.194695 5.57006 0.218937C4.51516 0.306623 3.85874 0.472717 3.14361 0.828767C2.59249 1.10243 2.15785 1.41966 1.72888 1.86434C0.947658 2.6753 0.474188 3.673 0.302791 4.85895C0.219461 5.43469 0.195219 5.55211 0.190295 8.49293C0.188401 9.4732 0.190295 10.7633 0.190295 12.4938C0.190295 17.63 0.195976 19.1318 0.220597 19.4235C0.305822 20.45 0.466802 21.0958 0.8077 21.8022C1.4592 23.1544 2.70348 24.1695 4.16934 24.5483C4.6769 24.679 5.23749 24.751 5.95717 24.785C6.26208 24.7983 9.36994 24.8078 12.4797 24.8078C15.5894 24.8078 18.6992 24.804 18.9965 24.7888C19.8299 24.7496 20.3137 24.6847 20.8488 24.5464C22.3241 24.1657 23.5456 23.1658 24.2104 21.7946C24.5447 21.1052 24.7142 20.4348 24.7909 19.4619C24.8075 19.2498 24.8145 15.8679 24.8145 12.4905C24.8145 9.11261 24.807 5.73695 24.7903 5.52484C24.7127 4.53623 24.5432 3.87148 24.1981 3.16885C23.915 2.59368 23.6006 2.16414 23.1441 1.72495C22.3296 0.946945 21.3334 0.473474 20.1463 0.302267C19.5711 0.219126 19.4566 0.194506 16.5135 0.189392H12.506Z" fill="#E8E8E8"/>
<path d="M12.5003 3.409C10.0315 3.409 9.72162 3.41979 8.75196 3.46392C7.78418 3.50824 7.1236 3.66145 6.54558 3.88625C5.94768 4.11844 5.4405 4.42904 4.93522 4.93452C4.42955 5.43981 4.11895 5.94699 3.886 6.5447C3.66063 7.1229 3.50723 7.78367 3.46367 8.75107C3.4203 9.72074 3.40894 10.0308 3.40894 12.4996C3.40894 14.9685 3.41992 15.2774 3.46386 16.2471C3.50836 17.2148 3.66158 17.8754 3.88619 18.4534C4.11857 19.0513 4.42917 19.5585 4.93465 20.0638C5.43975 20.5695 5.94693 20.8808 6.54445 21.113C7.12284 21.3378 7.78361 21.491 8.7512 21.5353C9.72087 21.5795 10.0305 21.5903 12.4992 21.5903C14.9682 21.5903 15.2771 21.5795 16.2468 21.5353C17.2146 21.491 17.8759 21.3378 18.4543 21.113C19.052 20.8808 19.5584 20.5695 20.0635 20.0638C20.5692 19.5585 20.8798 19.0513 21.1128 18.4536C21.3362 17.8754 21.4896 17.2146 21.5351 16.2472C21.5787 15.2776 21.59 14.9685 21.59 12.4996C21.59 10.0308 21.5787 9.72093 21.5351 8.75126C21.4896 7.78349 21.3362 7.1229 21.1128 6.54489C20.8798 5.94699 20.5692 5.43981 20.0635 4.93452C19.5579 4.42885 19.0522 4.11826 18.4537 3.88625C17.8742 3.66145 17.2133 3.50824 16.2455 3.46392C15.2758 3.41979 14.9671 3.409 12.4975 3.409H12.5003ZM11.6848 5.0472C11.9269 5.04683 12.1969 5.0472 12.5003 5.0472C14.9275 5.0472 15.2152 5.05592 16.1737 5.09948C17.06 5.14 17.5411 5.28811 17.8615 5.41253C18.2858 5.5773 18.5882 5.77427 18.9062 6.09244C19.2244 6.41061 19.4213 6.71363 19.5865 7.13786C19.7109 7.45793 19.8592 7.93897 19.8995 8.82531C19.9431 9.78361 19.9526 10.0715 19.9526 12.4975C19.9526 14.9236 19.9431 15.2115 19.8995 16.1698C19.859 17.0561 19.7109 17.5372 19.5865 17.8572C19.4217 18.2815 19.2244 18.5835 18.9062 18.9015C18.588 19.2197 18.2859 19.4167 17.8615 19.5814C17.5415 19.7064 17.06 19.8541 16.1737 19.8947C15.2154 19.9382 14.9275 19.9477 12.5003 19.9477C10.0729 19.9477 9.78526 19.9382 8.82695 19.8947C7.94062 19.8538 7.45957 19.7057 7.13894 19.5812C6.71471 19.4165 6.41169 19.2195 6.09351 18.9013C5.77534 18.5832 5.57838 18.2809 5.41323 17.8565C5.2888 17.5364 5.14051 17.0554 5.10017 16.169C5.05661 15.2107 5.0479 14.9229 5.0479 12.4953C5.0479 10.0677 5.05661 9.78134 5.10017 8.82304C5.1407 7.9367 5.2888 7.45565 5.41323 7.13521C5.578 6.71098 5.77534 6.40796 6.09351 6.08979C6.41169 5.77161 6.71471 5.57465 7.13894 5.4095C7.45938 5.28451 7.94062 5.13679 8.82695 5.09607C9.66556 5.05819 9.99055 5.04683 11.6848 5.04493V5.0472ZM17.3528 6.55663C16.7506 6.55663 16.262 7.04468 16.262 7.64713C16.262 8.24938 16.7506 8.738 17.3528 8.738C17.9551 8.738 18.4437 8.24938 18.4437 7.64713C18.4437 7.04487 17.9551 6.55625 17.3528 6.55625V6.55663ZM12.5003 7.83121C9.92218 7.83121 7.83191 9.92149 7.83191 12.4996C7.83191 15.0778 9.92218 17.1671 12.5003 17.1671C15.0785 17.1671 17.168 15.0778 17.168 12.4996C17.168 9.92149 15.0785 7.83121 12.5003 7.83121ZM12.5003 9.46942C14.1738 9.46942 15.5305 10.826 15.5305 12.4996C15.5305 14.1731 14.1738 15.5298 12.5003 15.5298C10.8267 15.5298 9.47012 14.1731 9.47012 12.4996C9.47012 10.826 10.8267 9.46942 12.5003 9.46942Z" fill="black"/>
</g>
<defs>
<clipPath id="clip0_73_255">
<rect width="25" height="24.9992" fill="white"/>
</clipPath>
</defs>
</svg>
