<svg width="15" height="15" viewBox="0 0 25 25" fill="none" xmlns="http://www.w3.org/2000/svg">
<g clip-path="url(#clip0_24_121)">
<path d="M18.7153 0.0098877H6.26487C2.81523 0.0098877 0 2.82511 0 6.27476V18.745C0 22.1748 2.81523 24.9901 6.26487 24.9901H18.7351C22.1848 24.9901 25 22.1748 25 18.7252V6.27476C24.9802 2.82511 22.1649 0.0098877 18.7153 0.0098877ZM8.32673 20.2319H4.75813V9.92266H8.32673V20.2319ZM6.5226 8.33661C5.5115 8.33661 4.69865 7.52377 4.69865 6.51266C4.69865 5.50156 5.5115 4.68871 6.5226 4.68871C7.5337 4.68871 8.34655 5.50156 8.34655 6.51266C8.32672 7.52377 7.51388 8.33661 6.5226 8.33661ZM20.2419 20.2319H20.222H17.2482V15.2359C17.2482 14.0265 17.0896 12.4802 15.4441 12.4802C13.7589 12.4802 13.4814 13.7886 13.4814 15.1566V20.2319H10.5075V9.92266H13.2831V11.3104H13.3624C13.7986 10.5174 14.8097 9.90283 16.3957 9.90283C19.6669 9.90283 20.2419 11.7863 20.2419 14.5817V20.2319Z" fill="#171512"/>
</g>
<defs>
<clipPath id="clip0_24_121">
<rect width="25" height="25" fill="white"/>
</clipPath>
</defs>
</svg>
