<svg width="12" height="12" viewBox="0 0 25 25" fill="none" xmlns="http://www.w3.org/2000/svg">
<g clip-path="url(#clip0_24_119)">
<path d="M12.4994 0.0412598C5.61711 0.0412598 0.0376472 5.62057 0.0376472 12.5029C0.0376472 19.3855 5.61711 24.9643 12.4994 24.9643C19.3824 24.9643 24.9613 19.3855 24.9613 12.5029C24.9613 5.62102 19.3824 0.041855 12.4993 0.041855L12.4994 0.0412598ZM18.2143 18.0145C17.9911 18.3805 17.5119 18.4966 17.1458 18.2719C14.2199 16.4847 10.5366 16.08 6.19881 17.071C5.7808 17.1663 5.36414 16.9044 5.2689 16.4862C5.17321 16.068 5.43408 15.6514 5.85312 15.5561C10.6001 14.4712 14.672 14.9386 17.9568 16.946C18.3229 17.1707 18.439 17.6484 18.2143 18.0145ZM19.7396 14.6209C19.4583 15.0785 18.8601 15.2228 18.4033 14.9416C15.0536 12.8822 9.94747 12.2859 5.98542 13.4886C5.47158 13.6438 4.92887 13.3542 4.77292 12.8413C4.61815 12.3274 4.90789 11.7858 5.42083 11.6295C9.94658 10.2563 15.5729 10.9215 19.4196 13.2853C19.8765 13.5666 20.0208 14.1646 19.7396 14.6209ZM19.8705 11.0875C15.8542 8.70197 9.22768 8.48263 5.393 9.64647C4.77723 9.83322 4.12604 9.4856 3.93943 8.86983C3.75283 8.25376 4.10015 7.60302 4.71637 7.41581C9.1183 6.0795 16.436 6.33769 21.0601 9.08278C21.6152 9.4115 21.7967 10.1268 21.4679 10.6799C21.1405 11.2338 20.4232 11.4164 19.8711 11.0875H19.8705Z" fill="#171512"/>
</g>
<defs>
<clipPath id="clip0_24_119">
<rect width="25" height="25" fill="white"/>
</clipPath>
</defs>
</svg>
