<svg xmlns="http://www.w3.org/2000/svg" viewBox="0 0 146.22 142.78"><defs><style>.cls-1{fill:#300;}.cls-2{fill:#ff9a00;}</style></defs><g id="Layer_2" data-name="Layer 2"><g id="misc"><g id="AdobeIllustrator"><g id="vlpb"><g id="vlpc"><g id="vlpd"><path class="cls-1" d="M25.89,0h94.44a25.88,25.88,0,0,1,25.89,25.93v90.92a25.88,25.88,0,0,1-25.89,25.93H25.89A25.89,25.89,0,0,1,0,116.85V25.93A25.89,25.89,0,0,1,25.89,0Z"/></g></g></g><g id="vlpe"><g id="vlpf"><path class="cls-2" d="M70.68,85.43H48L43.38,99.77a1.07,1.07,0,0,1-1.16.85H30.77c-.67,0-.85-.37-.67-1.1L49.72,43c.18-.61.36-1.28.61-2a21.61,21.61,0,0,0,.36-4,.6.6,0,0,1,.49-.67H67c.49,0,.73.18.79.48L90,99.64c.18.67,0,1-.61,1H76.65a.92.92,0,0,1-1-.67l-5-14.52ZM51.54,73H67c-.37-1.28-.85-2.81-1.4-4.39S64.52,65.23,64,63.4s-1.15-3.72-1.76-5.62-1.16-3.66-1.65-5.43-.91-3.29-1.34-4.76H59.1A76.31,76.31,0,0,1,57,55.47c-.92,2.92-1.83,6-2.8,9S52.46,70.48,51.54,73Z"/><path class="cls-2" d="M103.58,47a7.54,7.54,0,0,1-5.43-2.13,8,8,0,0,1-2.07-5.62,7.18,7.18,0,0,1,2.2-5.43,7.8,7.8,0,0,1,5.42-2.13,7.3,7.3,0,0,1,5.54,2.13,7.73,7.73,0,0,1,2,5.43,7.75,7.75,0,0,1-2.13,5.62A7.13,7.13,0,0,1,103.58,47Zm-6.83,53V53c0-.61.25-.85.79-.85h12.07c.55,0,.79.31.79.85v47c0,.67-.24,1-.79,1H97.67A.85.85,0,0,1,96.75,100Z"/></g></g></g></g></g></svg>