<svg xmlns="http://www.w3.org/2000/svg" viewBox="0 0 125 139.71"><defs><style>.cls-1{fill:#0277bd;}.cls-2{fill:#039be5;}.cls-3{fill:#fff;}.cls-4{fill:#eee;}</style></defs><g id="Layer_2" data-name="Layer 2"><g id="misc"><g id="Icons"><g id="CSS"><path class="cls-1" d="M125,0H0L11,125,62.5,139.71,114,125,125,0Z"/><path class="cls-2" d="M62.5,11V128.31l41.18-11.77L112.87,11Z"/><path class="cls-3" d="M96,29.41H62.5V44.12h18l-1.1,14.7H62.5V73.53H78.68L77.57,90.07,62.5,95.22v15.44l29-9.56,2.58-42.28h0Z"/><path class="cls-4" d="M62.5,29.41V44.12H29.78l-1.1-14.71ZM45.59,58.82l.73,14.71H62.5V58.82Zm1.47,22.06H32.35l1.11,20.22,29,9.56V95.22L47.43,90.07Z"/></g></g></g></g></svg>