<svg xmlns="http://www.w3.org/2000/svg" viewBox="0 0 500 500">
                    <defs>
                    <style>.cls-36{fill:#f8e062;}.cls-37{fill:#fff;}.cls-38{fill:#343235;}.cls-39{fill:#efd32c;}.cls-40,.cls-42,.cls-43{fill:none;}.cls-40,.cls-42,.cls-43,.cls-44{stroke:#000;stroke-miterlimit:10;}.cls-40{stroke-width:3px;}.cls-41{fill:#ff630a;}.cls-42{stroke-width:4.19px;}.cls-43{stroke-width:6px;}.cls-44{stroke-width:7px;}
                    </style>
                    </defs>
                    <g id="Layer_2" data-name="Layer 2">
                    <g id="skills">
                    <rect class="cls-36" width="500" height="500" rx="25.26"/>
                    <g id="duckproject">
                    <path d="M320.06,203.58c4.69,6.76,26.25,41.82,26.91,50.22,1.1,13.85-4.66,39.64-8.47,52.7"/>
                    <path d="M320.46,203.31c7.17,6.27,12.5,14,17.31,22,4.68,8.37,9.55,16.44,12.31,25.79,1,4.94.26,10.05-.19,15a192.7,192.7,0,0,1-10.12,40.73l-2.54-.74c2.9-14.55,5.63-29.18,6.4-44a52.6,52.6,0,0,0-.27-8.61c-1.17-4.18-3.54-8.49-5.55-12.5-6.41-12.23-13.82-23.92-18.14-37.2l.79-.55Z"/>
                    <path class="cls-37" d="M335.58,318.74c.12-.34.22-.69.33-1,2.2-7.45,2.32-15.34,2.32-23.12,0-17.43-.5-35.1-5.4-51.84-5.15-17.57-15-33.5-20.19-51.05-6.5-21.81-5.63-45-6.5-67.76s-3.93-46.47-16.9-65.17C270.61,31.89,232,21.38,202,34.37s-48.69,47.66-43.84,80c2.39,15.93,9.69,30.63,17,45,.77,1.51,1.57,3.21,1.15,4.86a7.22,7.22,0,0,1-2.46,3.3c-15,13.78-26.44,30.08-35.88,48-.67-2.8,9.68-13.41,6.9-14.15-.13,0-12.93,8.21-13,8.28a.49.49,0,0,0-.16.31c-5.21,23.74-8.44,47.7-5.11,72A162.6,162.6,0,0,0,135,314.79c11.19,29.68,31,56.47,58.24,73.2,13.57,8.34,29.12,14.21,45,13.84,17.71-.41,34.56-8.55,48.29-19.74s24.71-25.34,35.25-39.58C327.28,335.12,332.76,327.48,335.58,318.74Z"/>
                    <path d="M333.81,318.17c3.39-11.32,2.3-23.7,2.08-35.45-.44-12-1.68-24-4.82-35.36-4.68-17.25-14.68-33.05-20.87-50.09-6.48-17.48-7.61-36.72-8.17-55-.67-33.85-1.23-74.07-31.29-95.63A70.93,70.93,0,0,0,233,33.51c-1.31-.19-5,0-6.39-.07-1.94.05-4.41.38-6.36.52-2.06.36-4.26.69-6.27,1.14l-4.1,1.1c-1.12.29-2.87,1-4,1.39a63.74,63.74,0,0,0-7.71,3.51c-.74.46-3.91,2.29-4.57,2.72-1.22.91-3.1,2.22-4.33,3.12a81.53,81.53,0,0,0-7.88,7.24c-.85.77-2.06,2.35-2.83,3.23-12.95,15.38-19.46,36.19-16.82,56.18,2.05,14.66,8.28,28,15,41.44,1.67,3.37,4.31,7.46,2.21,11.39-1,1.91-2.37,2.9-3.76,4.22-14.46,13.06-26,28.76-36.07,45.47l-1.64,2.66c-.16-1-1-3.43-.71-4.34,1.1-4.59,4.87-8.26,6.35-12.52a1.64,1.64,0,0,0,.8,1.56,2.07,2.07,0,0,0,1.35.26,2.21,2.21,0,0,0,.63-.22l-.3.21c-2.71,1.89-7.21,5.07-9.91,7l-1.34.93-.66.46-.07,0a2.86,2.86,0,0,0,1-1.23c.1-.27.1-.34.09-.24-.39,2.19-.79,4.37-1.14,6.55-7.28,40.08-6.53,74.37,12.08,111.37,17,34.66,55.28,71.82,96.29,69.21,25.42-2.11,46.24-19.61,62.56-38.07,5.73-6.34,11.18-13,16.51-19.82s10.24-13.8,12.82-21.73Zm3.55,1.15c-2.81,8.63-7.9,16-12.8,23.2s-9.91,14.29-15.35,21.19c-16.38,21-39.3,39-66.62,41.69-27.46,2.37-53.36-12.24-73-30.26-39.4-37.12-55.8-93.72-45.16-146.36,1.18-6.54,2.62-13,4.28-19.42a3.52,3.52,0,0,1,1.67-2.35c2.76-1.67,7.69-4.48,10.56-6.14.56-.32,1.63-.92,2.16-1.2a4.23,4.23,0,0,1,1.21-.53,2.75,2.75,0,0,1,3.16,1.86,3.8,3.8,0,0,1-.27,2.76c-1.31,2.68-3.34,4.8-5,7a21.47,21.47,0,0,0-3,4.47l-2.32-.29a158.46,158.46,0,0,1,30.64-45.69c1.51-1.58,3.29-3.23,4.87-4.77.55-.63.84-.82.78-1.37-.33-1.46-1.69-3.58-2.39-5.07C162.44,141.9,154,124,153.76,105.12c-.47-18.32,6-36.53,17-51.1,1.38-1.62,3.11-4,4.61-5.49A90.4,90.4,0,0,1,184,40.3c.94-.67,2.91-2.2,3.86-2.88,1.65-1.29,4.42-2.78,6.1-3.88,2.12-1.16,4.31-2.21,6.48-3.26,1.1-.4,3.42-1.34,4.53-1.75a70.18,70.18,0,0,1,11.68-3.06A79.88,79.88,0,0,1,276.2,39.12C320.43,70.51,307,132,313.8,177.63c1.78,11.77,5.67,22.72,10.35,33.7,4.7,11.23,9.82,22.58,12.54,34.61s3.45,24.49,3.63,36.67c-.19,12.31.84,24.71-3,36.71Z"/>
                    <ellipse class="cls-38" cx="277.42" cy="430.5" rx="83.62" ry="29.48"/>
                    <ellipse class="cls-38" cx="350.3" cy="459.87" rx="41.12" ry="14.09" transform="translate(-40.43 33.81) rotate(-5.23)"/>
                    <path class="cls-39" d="M256.83,87.7s45.7,7.69,41.5,16.21c0,0-46.87,58.93-109.93,30.22,0,0,.43-2.88,43.39-38.37,0,0,3.81-3.15,8.87-17.43C240.66,78.33,241.09,75.45,256.83,87.7Z"/>
                    <path class="cls-40" d="M240.66,78.33c-5.06,14.28-8.87,17.43-8.87,17.43-43,35.49-43.39,38.37-43.39,38.37,63.06,28.71,109.93-30.22,109.93-30.22,4.2-8.52-41.5-16.21-41.5-16.21C241.09,75.45,240.66,78.33,240.66,78.33Z"/>
                    <circle id="eye2" cx="196.05" cy="89.13" r="9.1"/>
                    <circle id="eye1" cx="267.92" cy="67.53" r="9.1"/>
                    <path d="M188.27,133.64c13.67-4.21,27.3-8.29,40.38-13.91,4.49-1.84,8.39-4.46,12.81-6.32,17.43-7.75,37.85-10.87,56.84-10l0,1c-18.6,3.11-37.43,6.43-54.79,13.71-4.38,1.85-8.6,4.43-13,6-4.53,1.8-9.15,3.25-13.78,4.58a212.41,212.41,0,0,1-28.22,5.89l-.22-1Z"/>
                    <path d="M184.44,208.66c-.4-8.45-.81-16.88-1.93-25.22-1-5.72-2.65-12.36-6.7-16.59l3.73-3.73c4.12,5,5.27,11,6.14,17.09.79,9.46.17,19-.21,28.45Z"/>
                    <path d="M166.34,278c-2.77-5.74-4.75-12.23-8.54-17.27-1.89-2.27-4.7-4.45-6.82-6.71-13.13-12.59-19-28.54-19.82-46.51h10.68a75.35,75.35,0,0,0,.9,18.41c1.6,9.12,6,17.61,11.87,24.89,2,2.77,4.32,4.86,6.19,7.94,3.34,6,4.33,12.55,6.37,18.91l-.83.34Z"/>
                    <path d="M155.85,318.08c-9.13-.1-20.54-11.12-26.46-17.63l1.93-1.59c5.31,6.64,15.69,18.07,24.51,18.78l0,.44Z"/>
                    <polygon points="170.99 351.32 145.04 337.57 146.28 335.4 171.3 350.77 170.99 351.32 170.99 351.32"/>
                    <path class="cls-41" d="M240.38,444.41q-10.15,6.82-20.35,13.65a8,8,0,0,1-2.44,1.27,7.61,7.61,0,0,1-4.26-.58c-8-2.77-17.47-7.36-23-13.87,5.46-3.68,10.3-7,15-11.94a10.2,10.2,0,0,0,2.08-2.73,10.06,10.06,0,0,0,.51-3.89q-.06-12.57,0-25.12c6,1.24,12.08,2.44,18.16,3.64a126,126,0,0,0,2.44,22.42,29,29,0,0,0,1.46,5.24C231.86,437.45,236.23,441,240.38,444.41Z"/>
                    <path class="cls-42" d="M207.8,401.2q0,12.56,0,25.12a10.06,10.06,0,0,1-.51,3.89,10.2,10.2,0,0,1-2.08,2.73c-4.66,4.91-9.5,8.26-15,11.94,5.57,6.51,15,11.1,23,13.87a7.61,7.61,0,0,0,4.26.58,8,8,0,0,0,2.44-1.27q10.22-6.82,20.35-13.65c-4.15-3.39-8.52-7-10.52-11.91a29,29,0,0,1-1.46-5.24A126,126,0,0,1,226,404.84C219.88,403.64,213.84,402.44,207.8,401.2Z"/>
                    <path class="cls-41" d="M377.18,327.38c.37,9.68,5.17,19,4.26,28.65-.66,7.31-4.59,13.86-8.63,20-7.13,10.74-15.14,21.07-25.11,29.26-4.59,3.75-10.12,7.17-16,6.37-4.19-.58-7.79-3.24-10.74-6.29a38.23,38.23,0,0,1-3.89-4.81,41.06,41.06,0,0,1-7.17-20.64c-.26-4,.83-7.75,1.49-11.72.69-4.25,1.27-8.48,2.22-12.66,1.27-5.5,3.24-11,6.66-15.44a26.76,26.76,0,0,1,2.33-2.65c7.39-7.17,18.45-8.74,27.41-13.83,8.37-4.81,15-12.71,24-16.06,2.33,2.55,3.17,6.12,3.32,9.54S377.07,324,377.18,327.38Z"/>
                    <path class="cls-43" d="M320.29,340.08c-3.42,4.41-5.39,9.94-6.66,15.44-.95,4.18-1.53,8.41-2.22,12.66-.66,4-1.75,7.68-1.49,11.72a41.06,41.06,0,0,0,7.17,20.64,38.23,38.23,0,0,0,3.89,4.81c2.95,3,6.55,5.71,10.74,6.29,5.86.8,11.39-2.62,16-6.37,10-8.19,18-18.52,25.11-29.26,4-6.12,8-12.67,8.63-20,.91-9.65-3.89-19-4.26-28.65-.11-3.42.33-6.88.15-10.3s-1-7-3.32-9.54c-9,3.35-15.61,11.25-24,16.06-9,5.09-20,6.66-27.41,13.83A26.76,26.76,0,0,0,320.29,340.08Z"/>
                    <path class="cls-44" d="M354.86,353l0,.05a28.7,28.7,0,0,0-2.64,3.75c-1.54,2.5-3.26,5.47-4.76,8.45-.26.52-3.8,8.43-2.67,7.41a36.34,36.34,0,0,0,5.95-8.31c2.06-3.63,4.05-7.78,5.89-12C356.35,351.78,355.66,352.13,354.86,353Z"/>
                    </g>
                    </g>
                    </g>
                    </svg>