<svg xmlns="http://www.w3.org/2000/svg" xmlns:xlink="http://www.w3.org/1999/xlink" viewBox="0 0 125.86 117.36"><defs><style>.cls-1{fill:url(#linear-gradient);}.cls-2{fill:url(#linear-gradient-2);}.cls-3{fill:url(#linear-gradient-3);}.cls-4{fill:#f7941e;}.cls-5{fill:#2c2255;}</style><linearGradient id="linear-gradient" x1="-156.84" y1="-516.92" x2="-156.84" y2="-516.29" gradientTransform="matrix(1518.09, 0, 0, -134.52, 238172.41, -69414.05)" gradientUnits="userSpaceOnUse"><stop offset="0.3" stop-color="#473788"/><stop offset="0.87" stop-color="#2c2255"/></linearGradient><linearGradient id="linear-gradient-2" x1="-156.84" y1="-514.99" x2="-156.84" y2="-514.36" gradientTransform="matrix(1518.07, 0, 0, -134.53, 238169.38, -69159.58)" xlink:href="#linear-gradient"/><linearGradient id="linear-gradient-3" x1="-156.92" y1="-511.93" x2="-156.92" y2="-511.74" gradientTransform="matrix(1380.98, 0, 0, -439.92, 216771.65, -225086.05)" gradientUnits="userSpaceOnUse"><stop offset="0.3" stop-color="#473788"/><stop offset="0.86" stop-color="#2c2255"/></linearGradient></defs><g id="Layer_2" data-name="Layer 2"><g id="misc"><g id="Eclipse"><path class="cls-1" d="M107.92,55.54a37.89,37.89,0,0,0-1.16-6.77H32.64a38.82,38.82,0,0,0-1.17,6.77Z"/><path class="cls-2" d="M107.92,61.83H31.47a38.93,38.93,0,0,0,1.17,6.78h74.12A38,38,0,0,0,107.92,61.83Z"/><path class="cls-3" d="M69.7,97.05A38.37,38.37,0,0,0,104.47,74.9H34.93A38.35,38.35,0,0,0,69.7,97.05Z"/><path class="cls-4" d="M9.79,58.68C9.79,29,32.06,4.39,61,.06,60.32,0,59.59,0,58.87,0a58.68,58.68,0,1,0,0,117.36c.73,0,1.45,0,2.17-.06-29-4.33-51.25-29-51.25-58.62Z"/><path class="cls-5" d="M34.93,74.9H15.69A54.54,54.54,0,0,0,29.88,98.39a54.27,54.27,0,0,0,39.81,16.54,60.53,60.53,0,0,0,9-.67A53.69,53.69,0,0,0,109.4,98.39,54.57,54.57,0,0,0,123.69,74.9ZM24.32,48.77h-10a56.94,56.94,0,0,0-.73,6.77H125.85a57.45,57.45,0,0,0-.73-6.77M13.54,61.83a57.4,57.4,0,0,0,.73,6.78H125.12a59.54,59.54,0,0,0,.74-6.78m-2.17-19.35a54.79,54.79,0,0,0-14.29-23.6A53.8,53.8,0,0,0,78.81,3.12a61.9,61.9,0,0,0-9.12-.68A54.45,54.45,0,0,0,29.88,18.88a54.85,54.85,0,0,0-14.19,23.6"/></g></g></g></svg>