 <svg xmlns="http://www.w3.org/2000/svg" viewBox="0 0 150.82 105.87" width="100" height = "100"><defs>
                <style>.cls-301{fill:#fff;}</style></defs><g id="Layer_2" data-name="Layer 2">
                    <g id="footermsg">
                        <path class="cls-301" d="M55.43.85c-9.15,3.71-18.69,11.84-17.81,22.7.9,11.11,11.3,18.5,21.62,19.94,6.42.89,12.93,0,19.21-1.4,5.81-1.34,11.69-3.17,16.38-7,4.16-3.4,7.26-8.84,6.75-14.35s-4-9.66-8.2-12.76a43.07,43.07,0,0,0-18-7.23,49.6,49.6,0,0,0-20.58.72c-1.87.47-1.08,3.36.8,2.89A46.05,46.05,0,0,1,87.55,7.92c4,2.07,8,5,10,9.24,2.13,4.52.75,9.64-2.36,13.34-3.39,4-8.37,6.19-13.33,7.61a63.06,63.06,0,0,1-17,2.75,28,28,0,0,1-15.13-3.8,19.68,19.68,0,0,1-8.39-10.12C37.8,16.3,47.19,7.41,56.23,3.74,58,3,57.22.12,55.43.85Z"/>
                        <path class="cls-301" d="M58.32,14.53a1.5,1.5,0,0,0,0-3,1.5,1.5,0,0,0,0,3Z"/><path class="cls-301" d="M73.1,11.92a1.5,1.5,0,0,0,0-3,1.5,1.5,0,0,0,0,3Z"/>
                        <path class="cls-301" d="M64.84,17.14a6.86,6.86,0,0,0,4.23-1.08,1.67,1.67,0,0,0,.69-.9A1.56,1.56,0,0,0,69.61,14a1.5,1.5,0,0,0-.9-.68,1.47,1.47,0,0,0-1.16.15,5.71,5.71,0,0,1-.88.47l.36-.15a5.73,5.73,0,0,1-1.42.38l.4-.05a5.09,5.09,0,0,1-1.17,0,1.5,1.5,0,0,0-1.06.44,1.52,1.52,0,0,0-.44,1.06,1.5,1.5,0,0,0,.44,1.06,1.59,1.59,0,0,0,1.06.44Z"/>
                        <path class="cls-301" d="M4.92,54.88A3,3,0,0,0,1.81,55,3.85,3.85,0,0,0,.12,57.75,23.54,23.54,0,0,0,0,61.31c0,1.14-.09,2.42.76,3.32,1.57,1.66,4.09.65,5.23-1S7.12,59.87,7,58c-.22-2.81-.45-5.61-.68-8.42l-2.95.4Q4.59,56.72,5.92,63.5a1.5,1.5,0,0,0,2.9-.8Q7.47,55.93,6.24,49.14c-.31-1.65-3.09-1.29-2.95.4l.55,6.79C4,58,4.4,60,3.76,61.56a2.56,2.56,0,0,1-.44.68.55.55,0,0,1-.25.17s-.29.07-.12.06H2.78q.21,0-.06,0s.34.19.31.21a7.14,7.14,0,0,0,0-1.21,28.37,28.37,0,0,1,0-3.06,1.87,1.87,0,0,1,.22-.78c.16-.2.07-.09.2-.14s0,0-.06,0c1.66,1,3.17-1.59,1.52-2.59Z"/>
                        <path class="cls-301" d="M11.92,61.17a8.41,8.41,0,0,0,3.88-.45,1.52,1.52,0,0,0,.89-2.2,7.68,7.68,0,0,0-3.15-3.62,3.91,3.91,0,0,0-4.83.84,4.69,4.69,0,0,0-.44,5,8.2,8.2,0,0,0,3.28,3.4,9.85,9.85,0,0,0,5.24,1.36,1.54,1.54,0,0,0,1.5-1.5,1.52,1.52,0,0,0-1.5-1.5c-.28,0-.56,0-.84,0l-.44,0c.31,0-.13,0-.24-.05q-.4-.09-.81-.21L14,62.06,13.86,62c-.21-.08.2.1,0,0s-.53-.27-.79-.42l-.33-.2-.21-.15s-.24-.18-.11-.07,0,0-.05,0l-.19-.17-.29-.26-.31-.32-.12-.15s-.24-.3-.13-.14,0,0,0-.06l-.11-.16c-.08-.12-.15-.25-.22-.38s-.14-.35-.06-.1c-.05-.16-.11-.32-.15-.48s0-.17,0-.25,0,.25,0,.09,0-.26,0-.38c0-.29-.06.23,0-.05,0-.1,0-.35.13-.42s-.14.26,0,.1,0-.1.08-.14a.93.93,0,0,1,.11-.19s-.19.21-.07.09.18-.25.27-.27-.25.15-.09.07.23-.14.24-.13-.28.08-.09.05l.17-.05s.22,0,0,0h.28s-.29-.06-.1,0l.46.12c.16,0,0,0-.07,0l.27.14.15.1c.24.13-.08-.1,0,0a7.49,7.49,0,0,1,.68.7s-.13-.19,0,0l.19.26.27.45c.18.3.35.61.51.92l.9-2.2c-.27.09-.54.18-.81.25l-.42.09c-.44.09.29,0-.16,0a7.34,7.34,0,0,1-1.69,0,1.5,1.5,0,0,0-1.5,1.5,1.54,1.54,0,0,0,1.5,1.5Z"/>
                        <path class="cls-301" d="M25.4,54.63c-1.6-.58-3.41.45-4.5,1.58a3.66,3.66,0,0,0-1.14,2.45A2.86,2.86,0,0,0,21,61a3.89,3.89,0,0,0,2.07.65,16.43,16.43,0,0,0,2.22-.28c-.39,0,.21,0,.28,0h.25c.2,0-.27-.09,0,0l.18,0c-.06,0-.29-.16-.1,0a1.51,1.51,0,0,0,.17.1c-.17-.13-.2-.15-.12-.08l.1.1c.16.16-.1,0-.06-.08s.1.17.09.16-.11-.31-.07-.11c-.08-.39,0-.25,0-.14,0-.4.05-.25,0-.14l.08-.2c-.07.12-.07.12,0,0l.05-.08c-.1.09-.1.1,0,0s-.07,0-.11,0-.34.14-.11,0l-.15.05c-.2.08-.4.14-.6.2a6.57,6.57,0,0,1-1.23.26s.31,0,0,0l-.38,0c-.21,0-.42,0-.63,0a8.66,8.66,0,0,1-1.25-.09,1.46,1.46,0,0,0-1.06.44A1.52,1.52,0,0,0,20.18,63a1.46,1.46,0,0,0,.44,1.06,1.77,1.77,0,0,0,1.06.44,10.54,10.54,0,0,0,4.63-.43,4.24,4.24,0,0,0,2.24-1.4A2.53,2.53,0,0,0,28.64,60a3.36,3.36,0,0,0-1.94-1.55,5.67,5.67,0,0,0-2.59,0l-.5.09c-.3,0,0,0,0,0a1.06,1.06,0,0,1-.25,0H23c-.06,0-.27,0,0,0s0,0-.11,0l-.17,0c-.18,0,.27.15.12,0l-.15-.08c-.22-.12,0-.09.06.06,0,0-.12-.12-.11-.12s.23.3.09.1-.09-.26.05.12c-.11-.28,0,.31,0,0s0,.11,0,.1.19-.35,0-.11l0-.06.09-.13c-.12.14-.14.17-.07.08a4,4,0,0,1,.35-.36l.16-.15c.25-.23-.21.14.05,0a3.94,3.94,0,0,1,.48-.31l.2-.11c.31-.17-.28.07.06,0l.21-.06c.26-.09-.2,0,0,0s.23,0,.27,0l-.19,0,.21.07a1.52,1.52,0,0,0,1.85-1.05,1.55,1.55,0,0,0-1.05-1.85Z"/><path class="cls-301" d="M30.24,56.33v5.8a1.5,1.5,0,1,0,3,0v-5.8a1.5,1.5,0,0,0-3,0Z"/><path class="cls-301" d="M31.43,52.65a1.5,1.5,0,0,0,0-3,1.5,1.5,0,0,0,0,3Z"/><path class="cls-301" d="M39.13,55.16a7.19,7.19,0,0,0-2.55,4.32,4.19,4.19,0,0,0,2.13,4.12,3.5,3.5,0,0,0,4.53-1.4c1.06-1.62.7-3.62.24-5.37-.35-1.36-2.63-1.5-2.89,0a7.08,7.08,0,0,0,1.11,4.66,9.12,9.12,0,0,1,1.14,4,8.54,8.54,0,0,1-.19,2c-.11.45-.11.67-.56.72a5.88,5.88,0,0,1-2.29-.07c-.27-.09-.78-.35-.8-.58a1.54,1.54,0,0,0-1.5-1.5,1.51,1.51,0,0,0-1.5,1.5c.25,2.33,2.17,3.52,4.37,3.68a7.21,7.21,0,0,0,3.2-.34,3.45,3.45,0,0,0,1.89-2.33,11,11,0,0,0-.06-6,15.14,15.14,0,0,0-1.16-2.72,4,4,0,0,1-.76-2.25H40.59a4.48,4.48,0,0,1,.2,2.84,1.17,1.17,0,0,1-.46.5c-.08.07-.18,0-.32-.06a1.31,1.31,0,0,1-.36-1.52,5.23,5.23,0,0,1,1.6-2.1c1.43-1.3-.7-3.42-2.12-2.12Z"/><path class="cls-301" d="M45.75,57.25a15.52,15.52,0,0,0,.8,4.58,1.51,1.51,0,0,0,2.75.35,3.35,3.35,0,0,0,.44-1.89,14.39,14.39,0,0,1-.13-1.46.57.57,0,0,0,0-.13c0-.15,0,.17,0,.18a1.37,1.37,0,0,0,.07-.29s.05-.09,0-.12-.14.28-.06.16.09-.18.14-.26a.76.76,0,0,0,.08-.11c.07-.12-.1.13-.11.14s.16-.18.21-.23l.19-.17c.11-.1-.12.1-.13.1s.12-.08.15-.1l.27-.15s.1,0,.11-.06-.3.11-.15.06l.55-.16c.26-.06-.34,0,0,0h.26c.07,0,.37,0,.11,0s.08,0,.15,0,.38.14.16,0,.06,0,.11.06L52,58s.1.08.12.07-.27-.23-.06,0,.25.26.38.39-.09-.11-.09-.12.07.1.08.12.13.2.19.31.09.26.14.29-.1-.29-.06-.14a1.27,1.27,0,0,0,.06.18c.07.22.1.46.16.68,0,0,0-.33,0-.16s0,.12,0,.18,0,.22,0,.33a1.21,1.21,0,0,0,0,.19c0,.21,0-.07,0-.12a1.53,1.53,0,0,0-.07.36,1.51,1.51,0,0,0,1,1.85,1.53,1.53,0,0,0,1.85-1.05,5.49,5.49,0,0,0-2.59-6.13A4.46,4.46,0,0,0,49.64,55,4.59,4.59,0,0,0,47,57.19a4.07,4.07,0,0,0-.38,2.14c0,.32.09.64.11,1a1.64,1.64,0,0,0,0,.44c0-.11,0-.29,0-.09s.14-.24,0,0l2.74.36a13.69,13.69,0,0,1-.53-2c0-.15-.05-.3-.08-.46s0-.17,0,0a2.45,2.45,0,0,1,0-.27c0-.35-.06-.7-.07-1.06a1.5,1.5,0,0,0-3,0Z"/><path class="cls-301" d="M59.49,60.88a18.92,18.92,0,0,0,5.25-.45,1.5,1.5,0,0,0,.89-2.2,15.49,15.49,0,0,0-8.18-5.7,1.53,1.53,0,0,0-1.85,1,8.56,8.56,0,0,0,1.92,7.88A10.31,10.31,0,0,0,65,64.7a1.5,1.5,0,0,0,0-3c-.3,0-.59,0-.88-.06s.05,0-.11,0l-.44-.08a7.44,7.44,0,0,1-.78-.2l-.42-.14-.23-.08c.15.06-.19-.09-.22-.11l-.39-.2a7.09,7.09,0,0,1-.75-.45s-.32-.24-.2-.14-.16-.14-.19-.16c-.22-.19-.43-.4-.63-.61l-.23-.27c-.07-.08-.06-.08,0,0L59.39,59a6.68,6.68,0,0,1-.41-.67c-.07-.13-.14-.26-.2-.39s0,0-.05-.1a7.24,7.24,0,0,1-.24-.75,3.2,3.2,0,0,1-.1-.42s-.09-.48,0-.17a5.52,5.52,0,0,1-.05-.71,6.06,6.06,0,0,1,.05-.85c0,.27,0-.09,0-.17s.07-.28.1-.41l-1.84,1c.37.11.74.23,1.1.36l.41.16c-.25-.1.26.12.31.15a14.25,14.25,0,0,1,1.82,1l.42.3c.14.1.15.11,0,0l.23.19c.26.21.51.44.76.67s.48.48.71.73.26.29.38.44l.18.22c-.08-.11-.07-.1,0,0l.9-2.21a15.56,15.56,0,0,1-4.45.34,1.51,1.51,0,0,0-1.5,1.5,1.54,1.54,0,0,0,1.5,1.5Z"/><path class="cls-301" d="M72,54.65a4,4,0,0,0-3.37,2.17A7.42,7.42,0,0,0,68,61.06a3.71,3.71,0,0,0,1.66,3.19c1.51.8,2.86-.32,3.65-1.55,1.57-2.45,2.44-5.11,1.68-8-.63-2.42-2.24-4.63-2.38-7.18l-2.94.4,4.92,15.89c.57,1.84,3.46,1,2.89-.8L72.59,47.12c-.48-1.56-3-1.35-3,.4A16,16,0,0,0,71.21,53c.66,1.54,1.38,3.22,1.05,4.92a8.56,8.56,0,0,1-1.09,2.61,10.76,10.76,0,0,0-.68,1s.85,0,.75.22c0,0-.11-.21-.11-.25-.13-.79-.62-3.79.86-3.87,1.92-.1,1.94-3.1,0-3Z"/><path class="cls-301" d="M98.9,59.2a54.74,54.74,0,0,1-12.27-7.51c-.46-.37-1.64-1.06-1.58-1.72.07-.86,1.19-1.22,1.87-1.38.5-.12,1-.15,1.53-.26.27-.06.12,0,.16,0a2.24,2.24,0,0,1,.28.76,7.5,7.5,0,0,1,0,3.13,48.56,48.56,0,0,1-2.39,8.46C86,62.12,88,63.22,89,62.16a74.59,74.59,0,0,1,7.44-7,1.5,1.5,0,0,0,0-2.12,1.53,1.53,0,0,0-2.12,0,74.59,74.59,0,0,0-7.44,7L89.4,61.5a43.89,43.89,0,0,0,2.5-9.21,9.16,9.16,0,0,0-.31-4.56,3.83,3.83,0,0,0-1.35-1.95,3.48,3.48,0,0,0-2.57-.35,7.83,7.83,0,0,0-4,1.44,4.08,4.08,0,0,0-1.5,4c.38,1.42,1.58,2.31,2.67,3.18s2.44,1.89,3.71,2.77a56.64,56.64,0,0,0,8.87,5,1.55,1.55,0,0,0,2-.53,1.53,1.53,0,0,0-.54-2.06Z"/><path class="cls-301" d="M103.58,47.25l1,13.2,3-.4a10.27,10.27,0,0,1-.29-5.13c.25-.9,1.18-2.15,2.16-1.39s.78,2.47.33,3.54a3.76,3.76,0,0,1-2.65,2.4,1.52,1.52,0,0,0-1,1.85,1.54,1.54,0,0,0,1.84,1C112.49,61.42,115.3,54,111,51c-2.19-1.51-5-.32-6.16,1.9-1.22,2.39-.86,5.47-.2,8,.42,1.59,3.08,1.32,2.95-.4l-1-13.2a1.54,1.54,0,0,0-1.5-1.5,1.51,1.51,0,0,0-1.5,1.5Z"/><path class="cls-301" d="M113.2,53.05s0-.32,0,0c0,.06,0,.12,0,.18s0,.29,0,.43c0,.34,0,.67,0,1a11.45,11.45,0,0,0,.13,2.11,4.27,4.27,0,0,0,2,2.9,3.24,3.24,0,0,0,3.38.18c1.34-.83,1.5-2.39,1.68-3.81a23.65,23.65,0,0,0,.12-4.45,1.5,1.5,0,0,0-3,0,23.27,23.27,0,0,1,0,3.34c0,.28,0,.56-.08.85a2.6,2.6,0,0,1,0,.39c0-.3,0,.08,0,.18s-.07.45-.12.67,0,.3-.11.35.15-.26.05-.12-.16.23,0,.07-.24.17,0,0,0,0-.06,0,.33-.19.09,0c0,0-.08,0-.11,0s.38,0,.18,0h-.15s.35.07.22,0l-.23-.06c-.06,0-.32-.12-.08,0s-.05,0-.11-.07a1,1,0,0,0-.21-.14s.24.21.14.1l-.09-.08-.21-.21c-.22-.23.12.2,0,0l-.13-.21a.37.37,0,0,0-.05-.11c-.08-.13.07.17.07.17a1.92,1.92,0,0,0-.09-.32,1.16,1.16,0,0,1,0-.18.5.5,0,0,1,0-.12c0-.08,0-.08,0,0v.08c0-.06,0-.12,0-.18a1.94,1.94,0,0,1,0-.24c0-.15,0-.29,0-.43s0-.58,0-.87a12.64,12.64,0,0,0-.14-2.13,1.5,1.5,0,0,0-1.84-1,1.54,1.54,0,0,0-1,1.84Z"/><path class="cls-301" d="M121.13,51.56a40.76,40.76,0,0,0,.47,8.33,1.5,1.5,0,0,0,1.84,1,1.54,1.54,0,0,0,1-1.84c0-.16,0-.31-.07-.46s0-.21,0-.31c0,.11,0,.12,0,0,0-.31-.08-.62-.11-.93-.06-.65-.11-1.29-.15-1.94-.06-1.3-.05-2.6,0-3.9a1.52,1.52,0,0,0-1.5-1.5,1.54,1.54,0,0,0-1.5,1.5Z"/><path class="cls-301" d="M121.9,47.29a1.5,1.5,0,0,0,0-3,1.5,1.5,0,0,0,0,3Z"/><path class="cls-301" d="M125.67,45.79a68.12,68.12,0,0,0,1.74,14.44c.44,1.88,3.33,1.09,2.9-.8a63.91,63.91,0,0,1-1.64-13.64,1.5,1.5,0,0,0-3,0Z"/><path class="cls-301" d="M131.59,48.32A44,44,0,0,0,133,59.91a1.5,1.5,0,1,0,2.89-.79,41.42,41.42,0,0,1-1.3-10.8,1.5,1.5,0,0,0-3,0Z"/><path class="cls-301" d="M132,56.37l5.77-.47a1.5,1.5,0,0,0,0-3l-5.77.47a1.5,1.5,0,0,0,0,3Z"/><path class="cls-301" d="M58.73,70.68l0,8.74,2.94-.4c0-.06-.09-.61,0-.27a5.85,5.85,0,0,1,0-1.08,2.45,2.45,0,0,1,0-.27c0,.17,0,.17,0,0a6.63,6.63,0,0,1,.25-.9c-.12.31.1-.18.13-.24s.35-.47.14-.23l.37-.38c.14-.12.13-.11,0,0l.18-.12c.07,0,.39-.17,0,0a2.92,2.92,0,0,1,.42-.13l.21,0c-.22,0-.24,0-.07,0h.44l.22,0c-.22,0-.25,0-.08,0a2.15,2.15,0,0,0,.36.11c.11,0,.07,0-.11-.06l.19.1c.11.06.38.33.12.06.07.08.32.41.11.08.06.09.24.48.1.11,0,.08.12.59.1.25,0,.14,0,.27,0,.4,0-.34-.07.19-.09.27s-.06.17,0,0l-.12.25s-.36.46-.17.26a3.59,3.59,0,0,1-.39.39c.2-.17-.13.08-.18.11a4.63,4.63,0,0,1-.54.29c.21-.1-.29.11-.35.13l-.59.16-.61.13s-.62.09-.36.06a1.53,1.53,0,0,0-1.5,1.5c0,.72.66,1.6,1.5,1.5a8.11,8.11,0,0,0,5-2,4.43,4.43,0,0,0,1-5.07,4.21,4.21,0,0,0-3.68-2.07,4.75,4.75,0,0,0-4,2.14,7,7,0,0,0-.81,5.35,1.48,1.48,0,0,0,1.64,1.07,1.51,1.51,0,0,0,1.31-1.47l0-8.74a1.5,1.5,0,0,0-3,0Z"/><path class="cls-301" d="M68.93,73.34a3.87,3.87,0,0,0,0,3.93,4,4,0,0,0,3.57,2c3.25-.14,5-3.36,4.32-6.33l-2.74,1.15a9.08,9.08,0,0,1,1.16,6.81c0,.13-.07.26-.11.38s-.16.44-.07.23a6.56,6.56,0,0,1-.37.69c-.18.31.12-.08-.14.18a2.23,2.23,0,0,1-.27.26h0l-.13.08c-.07,0-.38.14-.1.06l-.31.08c-.15,0,.24,0,0,0-.13,0-.38,0-.11,0-.13,0-.24-.06-.37-.09s.1.06,0,0-.19-.14,0,0A.74.74,0,0,1,73,82.6c-.07-.08-.06-.06,0,.07l-.06-.1c.06.17.06.18,0,0a1.54,1.54,0,0,0-1.85-1,1.51,1.51,0,0,0-1,1.84,3.6,3.6,0,0,0,3.71,2.43,4.58,4.58,0,0,0,3.85-2.9,11.64,11.64,0,0,0-1-10.37,1.5,1.5,0,0,0-2.74,1.15,2.36,2.36,0,0,1-.22,1.75,2.46,2.46,0,0,1-.17.27q.1-.15-.06.06s-.36.28-.17.15c0,0-.52.26-.32.19-.06,0-.61.14-.34.11-.06,0-.62,0-.35,0-.08,0-.55-.18-.35-.08,0,0-.37-.26-.16-.08l-.19-.18c.09.13.09.12,0,0s-.09-.16-.13-.24c0,.15,0,.15,0,0a2,2,0,0,1-.06-.26h0a2.44,2.44,0,0,1,0-.27c0,.18,0,.19,0,0s0-.17,0,0a1.76,1.76,0,0,1,.14-.23,1.5,1.5,0,1,0-2.59-1.52Z"/><path class="cls-301" d="M25.74,92.52a5.16,5.16,0,0,0-5.79.74,5,5,0,0,0-1.4,5.09,3.57,3.57,0,0,0,2.14,2.25,6.68,6.68,0,0,0,2.85.11,6.83,6.83,0,0,1,1.43,0,2.85,2.85,0,0,1,.44.1l.23.07c-.24-.09.15.09.18.1l.18.12c.2.13-.13-.13.05,0s.32.39.19.19c.05.08.1.16.14.24,0-.08,0-.21,0,0,0,0,.06.24,0,.09s0,.24,0,0a2.86,2.86,0,0,1-.07.28c0-.2,0,0-.06.09a1.18,1.18,0,0,1-.11.19c.13-.19-.07,0-.1.09s-.25.22-.13.13-.18.12-.21.14l-.27.14c.15-.07,0,0,0,0a7.39,7.39,0,0,1-2.85,0,1.54,1.54,0,0,0-1.85,1.05,1.52,1.52,0,0,0,1.05,1.84c1.93.31,4.11.59,5.79-.64a3.83,3.83,0,0,0,1.27-5.16c-1.15-1.74-3.22-2.22-5.19-2.1-.45,0-.9.09-1.34.11a2.25,2.25,0,0,1-.58,0c.2,0-.24-.09-.11,0s0,0-.07-.07c.15.19,0,0,0,0a2.15,2.15,0,0,1-.14-.26s.06.18,0,0-.07-.49-.07-.25v-.3c0-.26,0,0,0-.13a2.86,2.86,0,0,1,.19-.65s-.07.16,0,0,.12-.22.19-.33.17-.21,0-.06l.2-.22.23-.2c-.16.12.08,0,.14-.07a2.11,2.11,0,0,1,1.89-.1,1.54,1.54,0,0,0,2.05-.54,1.5,1.5,0,0,0-.53-2Z"/><path class="cls-301" d="M28.79,94.64l1.93,8.26a1.51,1.51,0,0,0,2.9,0,7.91,7.91,0,0,0,.09-1.82c0-.23,0-.47,0-.71s0-.24,0-.36,0-.38,0-.16,0-.15,0-.16,0-.15.06-.23c-.05.27,0,.05,0-.07s.06,0,0,0c.25-.24-.16.07,0,0s-.27.06,0,0-.21,0,0,0-.34-.11,0,0l.21.06c-.3-.08-.09,0,0,0s.18.13,0,0a2.09,2.09,0,0,1,.22.2c0,.06.21.28,0,0l.16.24c0,.06.14.31,0,0,0,.09.07.18.1.28.3,1,.32,2,.61,2.94a1.5,1.5,0,1,0,2.89-.8,25.34,25.34,0,0,0-.94-3.77,4,4,0,0,0-2.77-2.18,3.06,3.06,0,0,0-3.41,2.09,4.66,4.66,0,0,0-.26,1.74c0,.34.05.69.06,1,0,.16,0,.32,0,.48s-.06.54,0,.3h2.9l-1.94-8.26a1.5,1.5,0,0,0-1.84-1,1.52,1.52,0,0,0-1.05,1.84Z"/><path class="cls-301" d="M41.22,96.69a6.23,6.23,0,0,0-1.89,3.87,3.69,3.69,0,0,0,.37,2.29,2.93,2.93,0,0,0,1.95,1.31,3.47,3.47,0,0,0,3.09-5.94l.38,1.46a1.23,1.23,0,0,1-.92.79c-.16,0-.18,0-.06,0l-.25,0,.12,0c.11,0,.05,0-.16-.07,0,0,.12.06.15.08.25.11-.22-.22,0,0l.2.19.55.51L46.78,103a1.5,1.5,0,1,0,2.12-2.12c-.94-.87-1.87-1.77-2.84-2.62a3.05,3.05,0,0,0-1.89-.81,1.92,1.92,0,0,0-1.94,1.39,1.47,1.47,0,0,0,.39,1.46c.05,0,.13.17.2.2-.13-.16-.16-.2-.1-.11a.57.57,0,0,1,.08.13c.15.23-.07-.31,0,0l.06.23c0,.17,0-.34,0-.07a1,1,0,0,0,0,.29c0-.22,0-.28,0-.16s0,.09,0,.14c-.06.28.17-.25,0,0,0,.06-.12.29,0,.09s.08-.1,0,0a.94.94,0,0,1-.1.1c-.12.12.26-.15,0,0a2,2,0,0,0-.25.13l.14-.06-.14,0c-.28.08.33,0,0,0h-.24c-.14,0,.35.09,0,0s0,0,0,0l-.14-.08c-.09-.05-.06,0,.1.09-.23-.21.14.26,0,0l.07.15c0-.14,0-.15,0,0s0-.13,0-.2a2.44,2.44,0,0,1,0-.27,1.5,1.5,0,0,1,0-.22l0,.17a1.52,1.52,0,0,0,.06-.32c0-.2.12-.39.18-.59s0-.07-.05.1l.08-.15.12-.24.18-.29c0-.07.18-.36,0,0a2.37,2.37,0,0,1,.46-.49,1.52,1.52,0,0,0,0-2.12,1.54,1.54,0,0,0-2.12,0Z"/><path class="cls-301" d="M49.93,98.35a5.54,5.54,0,0,0,.87,3.07,3.43,3.43,0,0,0,2.93,1.73,2.75,2.75,0,0,0,2.44-2.2,4.68,4.68,0,0,0,.08-1.49c0-.25-.06-.5-.07-.75s0-.25,0-.37c0,.26,0-.1,0-.17l-2.2.89c.31.19,0,0,0,0l.19.2c.22.22-.17-.28,0,0l.15.24c.19.3.34.62.51.94A3.77,3.77,0,0,0,57,102.35a3.31,3.31,0,0,0,3.54-1.52,5.75,5.75,0,0,0,.64-3.65,1.5,1.5,0,0,0-3,0,10.29,10.29,0,0,1,0,1.36c0,.11,0,.31,0,.09a2.09,2.09,0,0,1-.08.34c0,.08-.15.32,0,.08,0,.08-.08.15-.13.22-.16.27.1-.06,0,0s-.2.16,0,0c0,0-.32.19-.13.1s-.14.06-.16,0,.3-.07,0,0c.21,0,.18,0,0,0s.31.14.08,0,.17.18.07,0l-.13-.12c-.19-.18,0,0,0,.07,0-.1-.2-.3-.25-.39-.16-.27-.29-.54-.44-.81a4.6,4.6,0,0,0-1.58-1.78,1.51,1.51,0,0,0-2.2.9,7.26,7.26,0,0,0-.06,2.46v.33c0,.17,0,.15,0-.06a1.41,1.41,0,0,1-.06.22c-.06.29.15-.17,0,0,.14-.16.15-.18,0-.06.17-.12.19-.14,0,0a.44.44,0,0,1,.31-.09c.18,0,.22,0,.1,0s-.08,0,.08,0a.94.94,0,0,1-.22-.12c.27.16-.11-.12-.18-.19.18.19,0,0-.07-.12a3.62,3.62,0,0,1-.25-.48c.12.28,0-.09,0-.15a3.12,3.12,0,0,1-.11-.53c0,.34,0-.22,0-.28a1.5,1.5,0,0,0-3,0Z"/><path class="cls-301" d="M62.21,96.48a7.43,7.43,0,0,0,.32,4.12,1.53,1.53,0,0,0,1.65,1.07,1.47,1.47,0,0,0,1.3-1.47,16.07,16.07,0,0,1-.18-2.08,4.35,4.35,0,0,1,0-.51,2.11,2.11,0,0,1,0-.26c0,.18,0,.19,0,0a3.09,3.09,0,0,1,.22-.81c-.08.2-.1.23,0,.09l.09-.18c.06-.12.14-.22.2-.34s.08-.11-.06.07l.13-.15.27-.27c.13-.1.1-.08-.07.06l.16-.1.17-.09c.14-.07.11-.06-.1,0l.38-.1c-.24,0-.27,0-.1,0h.19l.2,0c-.24,0-.27,0-.11,0l.38.1c.15.06.13,0-.08,0l.18.09c.12.06.23.14.35.21s.11.08-.06,0l.15.13a2.65,2.65,0,0,1,.29.29l.14.16q-.2-.26-.06-.06c.08.12.16.24.23.37s.28.51.09.16a2.35,2.35,0,0,1,.15.42c.09.3.16.59.22.89,0,.09.13.58,0,.18,0,.14,0,.31,0,.46s0,.61,0,.92a1.5,1.5,0,0,0,3,0c-.1-2.51-.65-5.27-3-6.62A4.23,4.23,0,0,0,65,93a4.87,4.87,0,0,0-2.34,2.79,9.22,9.22,0,0,0-.17,4.4l3-.4a6.59,6.59,0,0,1-.25-.75l-.09-.41c-.07-.32,0,.27,0-.08s0-.48,0-.73,0-.24,0-.36,0-.16,0,0c0-.08,0-.16,0-.24a1.5,1.5,0,0,0-2.9-.79Z"/><path class="cls-301" d="M81.39,88.57l0,9.35h3l-.2-5.37c0-.79-.09-1.59-.06-2.38a3.57,3.57,0,0,1,0-.46c0,.22,0-.14.06-.2s.16-.38.06-.19l.11-.19c0-.07,0-.08,0,0s0,0,.08-.07c-.14.08.19-.1.23-.11-.16.07.2-.05.25-.06s.43-.08.25-.06l.57,0c.34,0,.68,0,1,0l.47,0c-.21,0,.21,0,.28.06l.22.07,0,0c.2.09,0,0,.17.13l.06.06c-.1-.11,0,0,0,.07s-.07-.22,0,0,0,.18.07.26,0,0,0-.06v.21a1.48,1.48,0,0,1,0,.21c0-.28,0,0,0,0a3.84,3.84,0,0,1-.13.41c.09-.22-.1.15-.14.22a1.64,1.64,0,0,1-.48.46,5,5,0,0,1-.5.29c-.15.08-.06,0,0,0s-.21.08-.31.12a14.09,14.09,0,0,1-2.5.54,1.5,1.5,0,0,0-1,1.84,1.53,1.53,0,0,0,1.84,1c1.92-.29,4-.75,5.28-2.36s1.52-3.94,0-5.43-3.85-1.32-5.71-1a3.86,3.86,0,0,0-2.64,1.75,5.45,5.45,0,0,0-.65,2.8c0,2.48.18,5,.27,7.44a1.5,1.5,0,0,0,3,0l0-9.35a1.53,1.53,0,0,0-1.5-1.5,1.5,1.5,0,0,0-1.5,1.5Z"/><path class="cls-301" d="M90.28,93.9v3.62h3a14.16,14.16,0,0,1,0-2.16c0-.2-.06.34,0,.06,0-.09,0-.18,0-.28a5.62,5.62,0,0,1,.15-.55c0-.07,0-.14.07-.22s-.14.3,0,0,.16-.3.25-.45.18-.25,0,0,0,0,.06-.06.2-.21.31-.31-.29.2,0,0l.16-.11c.12-.07.27-.12.38-.2-.28.19-.23.09-.07,0l.22-.06.19,0c.18,0-.39,0-.14,0h.23c.19,0,.2.09-.1,0,.12,0,.62.21.15,0a1.64,1.64,0,0,0,1.15.16,1.56,1.56,0,0,0,.9-.69,1.53,1.53,0,0,0-.54-2.06,4,4,0,0,0-1.6-.39,3.57,3.57,0,0,0-1.33.22A4.81,4.81,0,0,0,91.55,92a7.71,7.71,0,0,0-1.26,5.56,1.5,1.5,0,0,0,3,0V93.9a1.5,1.5,0,0,0-3,0Z"/><path class="cls-301" d="M102.51,90.83a4.6,4.6,0,0,0-4.28,1.07A4,4,0,0,0,97,96a4.32,4.32,0,0,0,3,2.8,3.75,3.75,0,0,0,4.08-1.68,7.41,7.41,0,0,0,.75-4.59l-2.8.75,3.52,4.94a1.54,1.54,0,0,0,2.06.54,1.51,1.51,0,0,0,.53-2l-3.52-4.94a1.5,1.5,0,0,0-2.79.76,11.19,11.19,0,0,1,0,1.92,1.94,1.94,0,0,1,0,.24c0-.2,0-.22,0-.05s0,.23-.08.35a3.59,3.59,0,0,1-.14.43c.14-.37,0,.06-.09.14l-.12.18c.12-.16.13-.18,0,0l-.16.15q.22-.17,0,0l-.14.08c-.1.05-.06,0,.13,0,0,.07-.38.07-.38.11.23,0,.26,0,.1,0H101l-.2,0-.19-.06.07,0s-.27-.15-.31-.18c-.32-.18.12.15-.07,0s-.28-.21-.29-.29c.13.17.15.19.05,0l-.1-.17c-.08-.15-.07-.12,0,.08a1.46,1.46,0,0,1-.07-.19c0-.07,0-.13,0-.2,0,.23,0,.26,0,.09s0-.24,0-.32c0,.22,0,.24,0,.08l.06-.21q.09-.23,0,.06l.11-.18a1.4,1.4,0,0,1,.12-.18c-.13.15-.14.17,0,0l.31-.3c-.26.25,0,0,0,0l.39-.22c-.35.18.07,0,.16,0l.22,0c-.22,0-.24,0-.07,0s.37,0,.43,0c-.21,0-.24,0-.07,0l.22,0a1.51,1.51,0,0,0,1.84-1,1.53,1.53,0,0,0-1-1.85Z"/><path class="cls-301" d="M111.52,90.77a9.52,9.52,0,0,0-1.77,5.41,2.82,2.82,0,0,0,1.83,2.63,3.08,3.08,0,0,0,2.79-.51c1.6-1.21,1.72-3.56,1.79-5.39a19.75,19.75,0,0,0-.78-6.12l-2.9.79A58,58,0,0,0,117.6,98.9a1.54,1.54,0,0,0,2.06.53,1.52,1.52,0,0,0,.53-2.05,54.05,54.05,0,0,1-4.81-10.59,1.54,1.54,0,0,0-1.85-1.05,1.52,1.52,0,0,0-1,1.84,16.75,16.75,0,0,1,.68,4.21,10.72,10.72,0,0,1-.35,3.74,1.18,1.18,0,0,1-.3.44c.2-.13-.17,0,0,0s-.18.12,0,0c-.17.09-.11-.07.09.05s.1.12.15.17,0-.21,0,0a3.53,3.53,0,0,1,0-.46,4.1,4.1,0,0,1,.12-.66,10.68,10.68,0,0,1,.33-1.1,8.19,8.19,0,0,1,.9-1.67,1.5,1.5,0,1,0-2.59-1.52Z"/><path class="cls-301" d="M121.12,94.54a23.6,23.6,0,0,0,6.25-.84,1.51,1.51,0,0,0,.66-2.5,15.11,15.11,0,0,0-3.85-2.84,4,4,0,0,0-2.93-.7A3.15,3.15,0,0,0,119.49,90a7.11,7.11,0,0,0,.14,4.58,5.73,5.73,0,0,0,3.36,3.3,5,5,0,0,0,4.66-.54,1.62,1.62,0,0,0,.69-.89,1.56,1.56,0,0,0-.15-1.16,1.52,1.52,0,0,0-2-.54c-.19.14-.4.24-.59.36s.29-.09.1,0l-.17,0c-.09,0-.33,0-.4.1s.33,0,.18,0l-.19,0c-.1,0-.21,0-.32,0h-.18c-.26,0,.09,0,.12,0-.14,0-.28,0-.41-.09a1.92,1.92,0,0,1-.32-.09.67.67,0,0,0-.17-.06s.29.14.09,0-.43-.24-.65-.37.09,0,.08.06a1.3,1.3,0,0,0-.14-.12l-.23-.23a.86.86,0,0,0-.13-.14c-.13-.14.17.24,0,.07l-.25-.41c-.06-.1-.11-.22-.17-.33s.09.27,0,.07l-.06-.15a5,5,0,0,1-.21-.87c0-.21,0,.29,0,.08,0,0,0-.11,0-.16s0-.29,0-.43,0-.29,0-.43,0-.11,0-.16,0,.31,0,0,.11-.52.18-.78.09-.28.14-.41a.47.47,0,0,0,.06-.15c-.07.17-.09.21,0,.11l.06-.13s.13-.14,0,0l-.06.08a.76.76,0,0,1-.76.26h-.09l.18,0c.15,0-.06,0-.08,0l.91.43a13.52,13.52,0,0,1,1.78,1.1c.06.05.15.09.19.15-.13-.15-.09-.08,0,0s.28.22.41.34.54.48.79.74l.66-2.51c-.48.13-1,.25-1.44.35l-.66.12-.4.06-.2,0-.2,0-.33,0c-.25,0-.49,0-.74.06-.49,0-1,.05-1.48.05a1.5,1.5,0,0,0,0,3Z"/><path class="cls-301" d="M132,94.39a7.83,7.83,0,0,0,6-1,1.5,1.5,0,0,0,.3-2.35l-1.93-1.56c-.65-.52-1.28-1.09-2-1.55a3.29,3.29,0,0,0-2.61-.54,2.81,2.81,0,0,0-1.86,1.94,8.14,8.14,0,0,0-.22,2.15c0,.75-.07,1.51-.06,2.26a4.26,4.26,0,0,0,2.36,4c1.81.82,3.66.48,5.5,0a1.5,1.5,0,1,0-.8-2.89,18.56,18.56,0,0,1-1.82.44c-.18,0,0,0,0,0l-.22,0h-.45c-.06,0-.46,0-.25,0s-.17,0-.24-.06l-.33-.09c-.27-.09.19.11-.06,0l-.29-.17s-.18-.13,0,0,0,0-.06-.06-.25-.3-.14-.14-.06-.13-.09-.17,0,0,0,0a1.39,1.39,0,0,1-.06-.19,1.46,1.46,0,0,1-.05-.2c0-.14,0-.15,0,0a33.46,33.46,0,0,1,.07-3.61c0-.08.08-.38,0-.19s0-.11.05-.17,0-.13,0-.15-.09.29,0,.12l.08-.13s-.21.23-.25.26c.17-.11-.11,0-.22,0,.27,0-.19-.07.07,0s-.13-.1.11,0a3.73,3.73,0,0,1,.39.25.91.91,0,0,1,.16.11c-.14-.1-.08-.06,0,0l.43.34.84.68,1.75,1.41.31-2.36c-.17.11-.33.21-.5.3l-.23.12c-.12,0-.26.1-.06,0a6.12,6.12,0,0,1-1.11.32l-.25,0c.13,0,.17,0,0,0l-.58,0-.58,0c.22,0,.1,0,0,0l-.31-.07a1.5,1.5,0,1,0-.8,2.9Z"/><path class="cls-301" d="M140.7,90.35a43.19,43.19,0,0,0,1,12.16,1.5,1.5,0,0,0,1.65,1.08,1.48,1.48,0,0,0,1.3-1.48c-.25-2.42-.54-4.85-.75-7.29a6.25,6.25,0,0,1,.15-2.73,2.59,2.59,0,0,1,.34-.58c-.19.25.17-.15.21-.19s.14-.11,0,0l.23-.14.24-.12-.05,0,.45-.14.27-.05c-.18,0-.17,0,0,0h.55c.18,0,.18,0,0,0l.26.05a4.36,4.36,0,0,1,.51.17c-.3-.13.19.12.24.15s.15.1,0,0l.19.18a1.8,1.8,0,0,1,.19.2c-.11-.14-.1-.11,0,.07s.14.16.09.27c.21-.48,0-.17,0-.16a13.4,13.4,0,0,0-1.46.84,25.77,25.77,0,0,1-3,1.37,1.53,1.53,0,0,0-1.05,1.84,1.51,1.51,0,0,0,1.84,1,31.5,31.5,0,0,0,3.37-1.47,7.78,7.78,0,0,0,2.8-1.9c1.55-2-.29-4.49-2.26-5.29a5.47,5.47,0,0,0-4.79.4c-1.89,1.18-2.46,3.36-2.36,5.47.12,2.67.52,5.34.8,8l2.94-.39a40.6,40.6,0,0,1-.87-11.37,1.5,1.5,0,0,0-3,0Z"/></g></g></svg>