<svg xmlns="http://www.w3.org/2000/svg" viewBox="0 0 115 153.34"><defs><style>.cls-1{fill:#1565c0;}.cls-2{fill:#f44336;}</style></defs><g id="Layer_2" data-name="Layer 2"><g id="misc"><g id="Icons"><g id="Java"><path class="cls-1" d="M88.49,80.71c6.72-1.51,12.39,2.78,12.39,7.71,0,11.12-15.41,21.63-15.41,21.63s23.86-2.84,23.86-21.1C109.33,76.87,97.61,73.86,88.49,80.71Zm-11.33,9s7.44-5.3,9.42-7.29c-18.25,3.88-59.94,4.4-59.94,1,0-3.1,13.44-6.27,13.44-6.27s-29.8-.43-29.8,8.36C10.28,94.67,49.29,95.32,77.16,89.68Z"/><path class="cls-1" d="M72.58,98c-17.28,5.74-49.12,3.91-39.69-3.81-4.59,0-11.4,3.69-11.4,7.24,0,7.12,34.43,12.62,59.92,2.19Z"/><path class="cls-1" d="M37.13,110.17c-6.27,0-10.33,4-10.33,7,0,9.17,37.41,10.09,52.24.79l-9.43-6.26C58.54,116.55,30.72,117.22,37.13,110.17Z"/><path class="cls-1" d="M104.58,125.09c0-3.58-4-5.28-5.5-6.08,8.54,20.59-85.54,19-85.54,6.83,0-2.76,6.92-5.47,13.32-4.19l-5.44-3.21C8.66,116.44,0,122.05,0,126.57,0,147.66,104.58,146.65,104.58,125.09Z"/><path class="cls-1" d="M115,132.65c-15.89,15.7-56.19,21.42-96.72,11.72C58.81,161.63,114.81,151.91,115,132.65Z"/><path class="cls-2" d="M56.16,80.11A117.9,117.9,0,0,1,45.71,59.2c-6.5-16.26,39.54-31,20.88-59.2,8.09,19.51-29.05,31.57-32.5,47.81C30.93,62.76,56.14,80.11,56.16,80.11Z"/><path class="cls-2" d="M57,50.87c-.73,9.65,8.55,14.79,8.82,21.83.21,5.74-5.55,10.52-5.55,10.52S70.76,81.16,74,72.42c3.62-9.72-7-16.37-5.94-24.15C69.11,40.84,91.2,27,91.2,27S58.69,29.18,57,50.87Z"/></g></g></g></g></svg>