<svg xmlns="http://www.w3.org/2000/svg" viewBox="0 0 124.92 125.56"><defs><style>.cls-1{fill:#ffd600;}.cls-2{fill:#000001;}</style></defs><g id="Layer_2" data-name="Layer 2"><g id="misc"><g id="Icons"><g id="JS"><path class="cls-1" d="M0,125.56V0H124.92V125.56Z"/><path class="cls-2" d="M81.67,94c2.4,3.92,5,7.68,10.54,7.68,4.64,0,7.08-2.32,7.08-5.53,0-3.84-2.52-5.2-7.63-7.44l-2.8-1.2c-8.08-3.44-13.45-7.76-13.45-16.88,0-8.41,6.4-14.8,16.4-14.8,7.13,0,12.24,2.48,15.94,9L99,70.39c-1.92-3.45-4-4.81-7.21-4.81s-5.36,2.09-5.36,4.81c0,3.36,2.08,4.72,6.89,6.8l2.8,1.2C105.66,82.47,111,86.63,111,96c0,10.09-7.93,15.62-18.57,15.62-10.4,0-16.31-5.25-19.6-11.75Zm-40.2.29c1.76,3.16,4.43,5.59,8.26,5.59,3.67,0,5.79-1.46,5.79-7.12V55.8H67.08V94.52c0,11.75-6.77,17.09-16.67,17.09-8.94,0-15.4-6.09-18-11.75Z"/></g></g></g></g></svg>