<svg xmlns="http://www.w3.org/2000/svg" xmlns:xlink="http://www.w3.org/1999/xlink" viewBox="0 0 1039.38 1104.2">
                <defs>
                <style>.cls-10{fill:none;}.cls-11{clip-path:url(#clip-path1);}.cls-12{fill:#fff;}</style>
                <clipPath id="clip-path1">
                    <rect class="cls-1" width="1920" height="1080"/>
                </clipPath>
                </defs>
                <g id="Layer_2" data-name="Layer 2">
                <g id="about_me" data-name="about me"><g class="cls-11">
                <path class="cls-12" d="M1341.59,740.19c4.27-15.2,17.4-25.71,29.13-35.27a62.67,62.67,0,0,1,10.86-7.5,60.75,60.75,0,0,1,12.87-4.47c9.11-2.34,18.35-4.76,27.77-5.47s19.49.43,27.93,5.28a1.5,1.5,0,0,0,1.51-2.59c-16.81-9.66-36.69-5.41-54.39-1a98.83,98.83,0,0,0-13.51,4,51.44,51.44,0,0,0-12,7.14,180.27,180.27,0,0,0-18.91,16.43c-6.3,6.44-11.67,13.91-14.13,22.68a1.5,1.5,0,0,0,2.89.79Z" transform="translate(-955.9 -44.36)"/>
                <path class="cls-12" d="M1348.34,754.34c8.44-2.13,16.89-4.23,25.32-6.39a199.07,199.07,0,0,0,24.26-7.53c7.41-2.95,14.86-6.52,20.65-12.12,2.87-2.77,5.29-5.95,7.91-8.95a66.17,66.17,0,0,1,8.79-8.44c6.29-5,14.19-8.27,18.76-15.16,1.07-1.62-1.53-3.12-2.59-1.52-3.9,5.89-10.71,8.89-16.23,13a68.52,68.52,0,0,0-8.77,7.73c-2.7,2.84-5.07,6-7.7,8.86-5.39,6-12.27,9.81-19.6,12.92a173.26,173.26,0,0,1-23.57,7.64c-9.32,2.45-18.68,4.74-28,7.1-1.87.47-1.07,3.36.8,2.89Z" transform="translate(-955.9 -44.36)"/>
                <path class="cls-12" d="M1365.71,711.56c1.11,3.48.07,7.23.71,10.8a18,18,0,0,0,4,8.35c4.44,5.31,11.35,7.67,18.09,8,1.93.09,1.93-2.91,0-3-6.1-.28-12.33-2.47-16.21-7.4a14.6,14.6,0,0,1-3.16-7.65c-.29-3.32.44-6.63-.59-9.88-.58-1.83-3.48-1-2.89.8Z" transform="translate(-955.9 -44.36)"/>
                <path class="cls-12" d="M1410.24,693.25c5.64,7,10.8,15.31,10.74,24.62a1.5,1.5,0,0,0,3,0c.07-10.15-5.47-19.08-11.62-26.74-1.2-1.51-3.31.63-2.12,2.12Z" transform="translate(-955.9 -44.36)"/>
                <path class="cls-12" d="M1393.85,706.48c-7.38,1.27-7.82,11.83-2.56,15.84a7.48,7.48,0,0,0,5,1.25,31.11,31.11,0,0,0,5.36-.62c3.22-.73,6.32-2.89,6.91-6.34a5.66,5.66,0,0,0-.1-2.49,3.62,3.62,0,0,0-.49-1.27c.45.44-.63.39.14.23a4,4,0,0,0,.86-.42l6.41-3.18c1.73-.86.22-3.45-1.51-2.59l-5.77,2.86c-1.65.81-3.64,1.66-3,3.9a6.41,6.41,0,0,1,.58,2.05,4,4,0,0,1-.86,2.17,6.89,6.89,0,0,1-4.35,2.27,21.55,21.55,0,0,1-5.43.44c-2-.13-3.06-1.54-3.78-3.26-1.29-3.12-.41-7.3,3.36-8,1.9-.33,1.09-3.22-.8-2.89Z" transform="translate(-955.9 -44.36)"/>
                <path class="cls-12" d="M1395,709.13a7.83,7.83,0,0,1,2.51-1.35c1-.3,2-.21,3-.51,1.9-.58,2.57-2.39,2.93-4.16a6.29,6.29,0,0,1,2.21-4,5.77,5.77,0,0,1,4.13-1.25,1.54,1.54,0,0,0,1.84-1,1.52,1.52,0,0,0-1-1.85,8.91,8.91,0,0,0-9.53,5.5,17.53,17.53,0,0,0-.63,2.47c-.12.51-.24,1.23-.7,1.45a6.18,6.18,0,0,1-1.61.21,9.76,9.76,0,0,0-4.63,1.95,1.54,1.54,0,0,0-.54,2.05,1.51,1.51,0,0,0,2,.54Z" transform="translate(-955.9 -44.36)"/>
                <path class="cls-12" d="M1414.51,708.55a6.15,6.15,0,0,0,2.37-2,6,6,0,0,0,.74-1.4,5.92,5.92,0,0,0,.36-1.55,1.44,1.44,0,0,0-.44-1.06,1.5,1.5,0,0,0-1.06-.44,1.47,1.47,0,0,0-1.06.44l-.23.3a1.45,1.45,0,0,0-.21.76v.05l0-.4a5,5,0,0,1-.32,1.15l.15-.35a5.85,5.85,0,0,1-.63,1.08l.23-.31a4.94,4.94,0,0,1-.88.89l.3-.24a4.38,4.38,0,0,1-.88.53,1.51,1.51,0,0,0-.54,2.06,1.47,1.47,0,0,0,.9.68l.4.06a1.42,1.42,0,0,0,.75-.21Z" transform="translate(-955.9 -44.36)"/>
                <path class="cls-12" d="M1410.36,698.41q.32.38.6.75c.1.13.07.08,0,0l.14.19.29.38q.58.79,1.14,1.62c.72,1.07,1.39,2.19,2,3.32a1.5,1.5,0,0,0,2,.54,1.53,1.53,0,0,0,.54-2.05,44,44,0,0,0-4.63-6.85,1.52,1.52,0,0,0-2.13,0,1.55,1.55,0,0,0,0,2.12Z" transform="translate(-955.9 -44.36)"/>
                <path class="cls-12" d="M1693.8,542.73c.74,1.78,1.51,3.56,2.4,5.27a5.52,5.52,0,0,0,3.44,3.16c1.77.4,3.38-.5,4.69-1.6a20.38,20.38,0,0,0,3.35-3.65c1.91-2.66,2.3-6.2-.13-8.68a6.4,6.4,0,0,0-4.12-1.93c-1.74-.13-3.14.77-4.68,1.41s-3.66.57-4.93,2a3.27,3.27,0,0,0,.34,4.91,1.51,1.51,0,0,0,2-.54,1.54,1.54,0,0,0-.54-2,1.74,1.74,0,0,1,.14.12c.21.19-.12,0,0,0s.05-.12,0,0,0-.15.06-.18c.1-.24-.08.15,0-.08,0,0,.23-.3.1-.15,0,0,.21-.16,0-.07.13-.07.24-.15.38-.21a7.55,7.55,0,0,1,1.63-.44,11,11,0,0,0,2-.66,8.37,8.37,0,0,1,3.05-1.08,3.38,3.38,0,0,1,2.14.94,2.9,2.9,0,0,1,1,2,5.18,5.18,0,0,1-1.09,3,17.79,17.79,0,0,1-2.24,2.51c-.63.61-1.57,1.55-2.45,1.52a1.26,1.26,0,0,1-.94-.52,6.94,6.94,0,0,1-.88-1.42c-.72-1.43-1.39-2.9-2-4.39a1.54,1.54,0,0,0-1.84-1,1.5,1.5,0,0,0-1,1.84Z" transform="translate(-955.9 -44.36)"/>
                <path class="cls-12" d="M1338.86,739.31a39.87,39.87,0,0,0-2.92,13.76,1.52,1.52,0,0,0,1.5,1.5l9.36-1.08a1.54,1.54,0,0,0,1.5-1.5,1.51,1.51,0,0,0-1.5-1.5l-9.36,1.08,1.5,1.5a37.25,37.25,0,0,1,2.82-13,1.53,1.53,0,0,0-1-1.85,1.54,1.54,0,0,0-1.85,1Z" transform="translate(-955.9 -44.36)"/>
                <path class="cls-12" d="M1641.84,591.48a85.45,85.45,0,0,1,28.38-41.91,82.38,82.38,0,0,1,22.12-12.78c10-3.83,20.68-5.52,31.21-7.25,11.66-1.91,23.93-3.59,35.31.51,1.82.66,2.61-2.24.8-2.89-10.41-3.75-21.63-2.84-32.36-1.23-11.12,1.67-22.48,3.36-33.15,7a88.16,88.16,0,0,0-41.87,31,86.28,86.28,0,0,0-13.34,26.69c-.55,1.86,2.35,2.65,2.9.8Z" transform="translate(-955.9 -44.36)"/>
                <path class="cls-12" d="M1642.09,595.06q24.44-12.42,49.49-23.57c8.36-3.72,16.8-7.24,25.2-10.85a140.63,140.63,0,0,0,22.34-11.89,133,133,0,0,0,21.2-17.56c1.36-1.38-.76-3.5-2.12-2.12a130.41,130.41,0,0,1-40.26,27.81c-8.29,3.68-16.7,7.08-25,10.74s-16.53,7.42-24.71,11.28q-13.93,6.58-27.66,13.57c-1.72.88-.21,3.47,1.51,2.59Z" transform="translate(-955.9 -44.36)"/>
                <path class="cls-12" d="M1658.24,561.72c.59,4.81,2.47,9.73,7.14,11.93,5.12,2.41,10.74,1.09,15.94-.33a1.5,1.5,0,0,0-.8-2.89c-4.27,1.17-9,2.51-13.36.74-3.85-1.58-5.44-5.58-5.92-9.45a1.54,1.54,0,0,0-1.5-1.5,1.5,1.5,0,0,0-1.5,1.5Z" transform="translate(-955.9 -44.36)"/>
                <path class="cls-12" d="M1708.77,534.68c2.55,3.69,5.4,7.71,5.56,12.36a8.93,8.93,0,0,1-1.82,6,19.66,19.66,0,0,1-5,3.87A153.6,153.6,0,0,1,1681.06,570c-1.79.69-1,3.59.8,2.9a158.93,158.93,0,0,0,23-10.92c3.29-1.9,7.12-3.8,9.66-6.7a12.42,12.42,0,0,0,2.62-10.29c-.69-4.43-3.27-8.25-5.76-11.87-1.09-1.58-3.69-.08-2.59,1.52Z" transform="translate(-955.9 -44.36)"/>
                <path class="cls-12" d="M1479.66,661.34a119.57,119.57,0,0,1-6.8,80.86,154.7,154.7,0,0,1-15.28,25.11c-7,9.67-14.09,19.23-21.15,28.83-1.14,1.56,1.46,3.06,2.59,1.52,6.41-8.73,12.85-17.44,19.23-26.18,5.92-8.13,11.66-16.42,16.1-25.47a122.66,122.66,0,0,0,12.41-54.24,121,121,0,0,0-4.21-31.22,1.5,1.5,0,0,0-2.89.79Z" transform="translate(-955.9 -44.36)"/>
                <path class="cls-12" d="M1326.87,789.8c16.67-9.35,36.76-6,55-7.86a75.1,75.1,0,0,0,14-2.67,83,83,0,0,0,14.11-5.91,164,164,0,0,0,25-16.46,178.9,178.9,0,0,0,24.35-23.15c1.27-1.44-.84-3.57-2.12-2.12a174.56,174.56,0,0,1-45.78,37.51,75.37,75.37,0,0,1-28,9.62c-9.43,1.14-19,.85-28.41,1.33-10.28.51-20.66,2-29.76,7.12a1.5,1.5,0,0,0,1.52,2.59Z" transform="translate(-955.9 -44.36)"/>
                <path class="cls-12" d="M1306.77,736c5.25-8.32,13.6-13.78,21.89-18.7,4.22-2.5,8.5-4.91,12.62-7.57a97.4,97.4,0,0,0,12.66-9.79c4.27-3.87,8.32-8,12.64-11.78a80,80,0,0,1,13.37-9.67c9.37-5.34,19.74-8.64,30.25-10.87,12-2.54,24.14-3.69,36.29-4.77,1.91-.17,1.92-3.17,0-3-21.74,1.93-44.3,4.06-64.12,13.95a79.23,79.23,0,0,0-13.85,8.82c-4.63,3.67-8.84,7.83-13.13,11.88a109.36,109.36,0,0,1-13.13,11c-4.14,2.84-8.5,5.34-12.84,7.88-9.52,5.58-19.21,11.58-25.24,21.11-1,1.64,1.56,3.15,2.59,1.52Z" transform="translate(-955.9 -44.36)"/>
                <path class="cls-12" d="M1498.48,665.36a278.47,278.47,0,0,1,16.9,33.15,236.65,236.65,0,0,1,12.18,35.17,90.58,90.58,0,0,1,2.88,18.79,73.61,73.61,0,0,1-1.75,18.12c-2.52,11.7-7,22.85-10.11,34.38-3.07,11.35-5.26,24-1.25,35.42,3.42,9.74,11.64,17.67,22.28,18.28,6.14.36,12.39-1.24,18.28-2.79a139.52,139.52,0,0,0,17.57-5.92c5.7-2.36,11.18-5.23,16.9-7.57,5.49-2.24,11.35-4.07,17.35-3.72,10.53.62,18.17,10.06,28.72,10.3,9.87.22,15.62-8.56,19.59-16.37,2.19-4.32,4.19-8.73,6.78-12.84a76.24,76.24,0,0,1,9.47-12.15,77.61,77.61,0,0,1,25.26-17.67c10.69-4.62,22.57-6.25,32.72-12.16,8.43-4.89,16.08-13.91,15.7-24.17-.36-9.74-7.8-16.72-16-20.94-9.33-4.83-19.86-7-29.88-9.91-11-3.17-22-6.82-31.66-13.22-10-6.64-18-16-25.84-25a373.23,373.23,0,0,1-41.68-58.41q-4.35-7.53-8.34-15.26c-.89-1.71-3.48-.2-2.6,1.52a378.16,378.16,0,0,0,38.29,59.49,348.86,348.86,0,0,0,23.07,26.71,101.91,101.91,0,0,0,13.42,12,75.87,75.87,0,0,0,14.45,8.1c10.39,4.51,21.4,7.26,32.27,10.38,9,2.59,18.78,5.44,25.65,12.22a18.58,18.58,0,0,1,5.74,11.37c.44,4.93-1.36,9.64-4.19,13.62-6.57,9.2-17.59,12.76-27.92,15.91a130.33,130.33,0,0,0-16,5.68,77.88,77.88,0,0,0-13.31,7.74,81.18,81.18,0,0,0-20.86,22,136.07,136.07,0,0,0-6.8,12.72c-2,3.94-4.09,8-7.2,11.17a13.67,13.67,0,0,1-11.62,4.39c-4.82-.61-9.13-3.39-13.33-5.64-4.81-2.57-9.72-4.55-15.25-4.6-5.9-.06-11.66,1.74-17.07,4s-10.78,5-16.26,7.3a137.89,137.89,0,0,1-17.55,6c-5.85,1.57-12.06,3.21-18.16,2.8a20.36,20.36,0,0,1-13.3-6.45c-8-8.32-8.83-20.64-7.19-31.5,1.77-11.71,6-22.84,9.44-34.12s5.93-23,4.88-34.9c-1.08-12.34-4.87-24.33-9-35.93a279.82,279.82,0,0,0-14.52-33.44q-4-7.87-8.59-15.48a1.5,1.5,0,0,0-2.59,1.52Z" transform="translate(-955.9 -44.36)"/>
                <path class="cls-12" d="M1513.85,838.8q-.75,22.76-1.5,45.52a164.45,164.45,0,0,0,.39,22.31,104.83,104.83,0,0,0,4.32,20.36,172.79,172.79,0,0,0,8.76,21.93c.82,1.75,3.41.23,2.59-1.51-5.87-12.46-10.84-25.62-12.51-39.38a146.76,146.76,0,0,1-.6-22c.21-7.28.47-14.57.71-21.85l.84-25.39c.06-1.93-2.94-1.93-3,0Z" transform="translate(-955.9 -44.36)"/>
                <path class="cls-12" d="M1738.06,740.22c13.24,18.54,34.37,28.52,50.77,43.73A73.58,73.58,0,0,1,1801,798.17c1,1.62,3.63.12,2.59-1.51-12.28-19.23-33.41-29.5-50.13-44.17a81.8,81.8,0,0,1-12.78-13.78c-1.11-1.56-3.72-.07-2.59,1.51Z" transform="translate(-955.9 -44.36)"/>
                <path class="cls-12" d="M1723.36,798.18l14.62-7.32a1.51,1.51,0,0,0,.54-2.05,1.53,1.53,0,0,0-2-.54l-14.62,7.32a1.51,1.51,0,0,0-.54,2,1.53,1.53,0,0,0,2,.54Z" transform="translate(-955.9 -44.36)"/>
                <path class="cls-12" d="M1580.33,870.08a36.22,36.22,0,0,1,26.28-7.6c1.92.2,1.9-2.8,0-3a39.13,39.13,0,0,0-28.4,8.48c-1.51,1.21.63,3.32,2.12,2.12Z" transform="translate(-955.9 -44.36)"/>
                <path class="cls-12" d="M1650.82,871.57a41,41,0,0,1-1.54,24.45c-.69,1.8,2.21,2.58,2.89.79a43.71,43.71,0,0,0,1.54-26c-.46-1.87-3.35-1.08-2.89.8Z" transform="translate(-955.9 -44.36)"/>
                <path class="cls-12" d="M1681,854.35c0,6,4.44,10.81,9.55,13.36,6.42,3.19,13.84,3,20.63,5a1.5,1.5,0,0,0,.8-2.89c-6.2-1.8-13-1.72-18.93-4.24-4.56-1.91-9.09-5.91-9-11.22a1.5,1.5,0,0,0-3,0Z" transform="translate(-955.9 -44.36)"/>
                <path class="cls-12" d="M1624.58,601.61c-3.06-12.39-1.17-25.56,4-37.11,5.3-11.76,13.86-21.67,24.09-29.43s22.16-13.66,34.36-18a99,99,0,0,1,21.62-5.44c7.6-.89,15.27-.62,22.9-.27,16.68.77,33.56,1.47,49.66,6.27,1.86.55,2.65-2.34.8-2.89-14.73-4.39-30.15-5.41-45.41-6.14-8-.39-16-.88-24-.33a92.8,92.8,0,0,0-22.3,4.53c-25,8.13-50.24,22.76-62.68,46.89-6.74,13.08-9.51,28.32-5.94,42.74.46,1.87,3.36,1.08,2.89-.8Z" transform="translate(-955.9 -44.36)"/>
                <path class="cls-12" d="M1634.86,618.63a80.64,80.64,0,0,0,55.36-13.39c8.69-6,15.75-14,24.29-20.13s18.08-11,27.67-15.46c11.51-5.35,23.11-10.49,34.67-15.72,1.76-.8.24-3.38-1.51-2.59-10.34,4.67-20.69,9.32-31,14-9.42,4.3-18.81,8.79-27.47,14.5a110.09,110.09,0,0,0-12.28,9.42c-4,3.55-7.9,7.27-12.12,10.59A76.33,76.33,0,0,1,1667,613a78,78,0,0,1-32.11,2.62c-1.91-.25-1.89,2.75,0,3Z" transform="translate(-955.9 -44.36)"/>
                <path class="cls-12" d="M1566.47,529.57a295.89,295.89,0,0,1,35.15-23c12.33-6.86,25.07-13,37.92-18.84a420.13,420.13,0,0,1,39.34-16c13.61-4.57,27.92-6.7,42-9.38,12-2.28,27.38-6.95,37.82,1.9a15.32,15.32,0,0,1,4.55,6.21c.13.35.6,1.28.47,1.69s-1,.56-1.44.66a35,35,0,0,1-5.39.68c-3.44.19-6.89.08-10.33.25a47.61,47.61,0,0,0-9.92,1.52C1730.13,477,1724,480,1718,482.82l-19.85,9.37L1658,511.14l-79.43,37.46-9.93,4.69,2.2.89a53.44,53.44,0,0,1-2.67-27.3c.32-1.89-2.57-2.7-2.89-.8a56.42,56.42,0,0,0,2.67,28.9,1.53,1.53,0,0,0,2.2.9l82.14-38.75L1692.87,498l20.76-9.79c6.4-3,12.76-6.3,19.44-8.64a47.81,47.81,0,0,1,10.2-2.5,101.5,101.5,0,0,1,10.32-.4c3.37-.06,7.12-.06,10.36-1.13a3.69,3.69,0,0,0,2.67-2.57c.32-1.42-.36-3-.91-4.27-2.2-5.05-6.8-8.59-11.82-10.58-6.25-2.48-13.17-2.14-19.7-1.18-7.31,1.07-14.57,2.67-21.83,4s-14.54,2.66-21.72,4.35c-14.14,3.32-27.63,9-40.94,14.73-26.54,11.34-52.75,24.12-76.38,40.8q-4.23,3-8.36,6.14c-1.52,1.15,0,3.76,1.51,2.59Z" transform="translate(-955.9 -44.36)"/>
                <path class="cls-12" d="M1279.74,729.36c8.25-18.82,22.39-34.47,38.61-46.85a229.88,229.88,0,0,1,28.51-18.26c9.92-5.45,20.09-10.55,30.39-15.25,11.59-5.29,24.09-9.72,37-8.43,1,.11,1.61-1,1.44-1.89l-6-30.39a1.55,1.55,0,0,0-1.85-1l-18.59,3.4c-1.89.35-1.09,3.24.8,2.9l18.59-3.4-1.84-1,6,30.38,1.45-1.9c-11.64-1.16-23,2.21-33.65,6.69s-21.05,9.78-31.25,15.22c-19.48,10.39-38.29,22.71-53.13,39.25a110,110,0,0,0-19.1,29.12c-.77,1.75,1.82,3.28,2.59,1.51Z" transform="translate(-955.9 -44.36)"/>
                <path class="cls-12" d="M1276.61,668.83c-3.83.53-4.94,5.15-6,8.2-1.49,4.47-3,9-4.17,13.51-2.34,8.75-3.79,17.89-2.84,27a46.73,46.73,0,0,0,3.79,14.35,1.52,1.52,0,0,0,2,.54l7.63-4.1c1.7-.92.19-3.51-1.51-2.59l-7.63,4.1,2,.53c-7-15.51-2.82-33,2.17-48.39.74-2.28,1.46-4.58,2.28-6.84.52-1.45,1.25-3.13,2.94-3.37,1.9-.26,1.09-3.15-.8-2.89Z" transform="translate(-955.9 -44.36)"/>
                <path class="cls-12" d="M1276.73,673.12l8.62-8.39a1.51,1.51,0,0,0,0-2.12,1.53,1.53,0,0,0-2.12,0l-8.62,8.39a1.5,1.5,0,0,0,0,2.12,1.54,1.54,0,0,0,2.12,0Z" transform="translate(-955.9 -44.36)"/>
                <path class="cls-12" d="M1581.11,991.13l18-28.71c2.87-4.6,5.73-9.21,8.64-13.79a99.6,99.6,0,0,1,8.89-12.3c11.73-13.35,28.73-19.74,45.09-25.39,8.53-2.94,17.1-5.81,25.4-9.38,9.88-4.26,19.47-9.16,29.54-13,19.92-7.59,40.78-12.25,61.56-16.78a121.57,121.57,0,0,1,16-2.88,39.59,39.59,0,0,1,15.41,1.69,87.14,87.14,0,0,1,14,6.25c3.43,1.81,8.47,3.87,9,8.3s-3.27,8.41-5.51,11.73a43.79,43.79,0,0,0-5.64,12.71c-1.29,4.58-2.1,9.27-3.1,13.92a90.94,90.94,0,0,1-4.1,14c-3.7,9.49-9,18.27-14.38,26.89-5.18,8.34-10.28,17.05-17.69,23.64a45.3,45.3,0,0,1-12.13,7.7c-4.77,2.06-9.87,3-14.85,4.39-8.74,2.45-16,7.54-23.38,12.57a80,80,0,0,1-11.27,6.69,38.77,38.77,0,0,1-14.13,3.38c-5.46.33-11,.25-16.42.32l-17,.22c-11.15.14-22.31.45-33.46.35a106.06,106.06,0,0,1-31.32-4.52,92.81,92.81,0,0,1-14-5.72c-1.72-.87-3.24,1.71-1.52,2.59a96.79,96.79,0,0,0,30,9.52c11.19,1.59,22.54,1.13,33.8,1l34.42-.44c5.61-.08,11.27.05,16.86-.41a41.64,41.64,0,0,0,14.2-3.69c8.18-3.79,15.05-9.79,22.83-14.27a52.76,52.76,0,0,1,13.38-5.3c5-1.28,10-2.48,14.65-4.7,9.16-4.34,16.08-11.52,21.79-19.74,2.9-4.18,5.55-8.52,8.23-12.83,2.79-4.49,5.52-9,8-13.66a117.93,117.93,0,0,0,6.49-14,96.25,96.25,0,0,0,4-14.43c1-4.72,1.84-9.48,3.25-14.09a45.72,45.72,0,0,1,6.45-12.8c2.49-3.59,5.2-7.78,4.19-12.36-1-4.43-5.16-6.83-8.86-8.8-9.19-4.89-18.67-9.5-29.34-9.26a87.63,87.63,0,0,0-16.49,2.43c-5.39,1.17-10.78,2.34-16.16,3.56-10.66,2.42-21.28,5-31.74,8.19a246,246,0,0,0-30.41,11.39c-9.5,4.31-18.87,8.77-28.7,12.3-16.68,6-34.48,10.71-49,21.34a63.18,63.18,0,0,0-9.93,8.91,99.38,99.38,0,0,0-9.29,12.68c-6.14,9.59-12.1,19.29-18.14,28.93l-8.86,14.15c-1,1.64,1.57,3.14,2.59,1.51Z" transform="translate(-955.9 -44.36)"/>
                <path class="cls-12" d="M1598.36,1012.83q21-14,43-26.53T1686.19,963c15.39-7.32,31-14,46.88-20.24,8.12-3.23,16.21-6.55,24.12-10.29s15.62-7.78,23.26-12c15.59-8.56,30.93-17.57,46.35-26.41l5.82-3.34a1.5,1.5,0,0,0-1.51-2.59c-15.51,8.89-31,17.89-46.55,26.63a411.54,411.54,0,0,1-47.09,23c-15.85,6.38-31.65,12.76-47.15,20q-22.92,10.66-45,22.95t-43.24,26.14c-1.74,1.14-3.47,2.28-5.2,3.44s-.1,3.66,1.51,2.59Z" transform="translate(-955.9 -44.36)"/>
                <path class="cls-12" d="M1579.27,992.72c15.24-1.54,28.73-9.56,42.14-16.34q21.33-10.78,43-20.83t43.67-19.42c14.46-6.17,29.12-11.83,43.57-18a130,130,0,0,0,22.09-11.62c6.38-4.31,12.64-9.32,20.36-10.89,1.89-.38,1.09-3.28-.8-2.89-6.85,1.39-12.66,5.38-18.31,9.3a127,127,0,0,1-19,10.9c-6.89,3.19-14,5.92-21,8.77q-11.18,4.53-22.31,9.22-43.77,18.47-86.34,39.61c-7.7,3.84-15.29,7.92-23.06,11.62-7.6,3.61-15.6,6.71-24,7.56-1.9.19-1.92,3.2,0,3Z" transform="translate(-955.9 -44.36)"/>
                <path class="cls-12" d="M1788,896.68A245.15,245.15,0,0,0,1827.42,879c1.68-.94.17-3.53-1.52-2.59a241.09,241.09,0,0,1-38.7,17.37c-1.81.63-1,3.53.8,2.89Z" transform="translate(-955.9 -44.36)"/>
                <path class="cls-12" d="M1382.58,998.82c2,14.64,14.73,23.7,26.31,31.08,6.81,4.34,13.82,8.42,20.1,13.54,7.3,6,13.78,12.84,20.2,19.71s12.81,13.75,19.94,19.86a160.19,160.19,0,0,0,21.5,15.47c15.37,9.28,32,16.21,49,22,17.63,6,35.65,10.76,53.63,15.54,20.31,5.4,40.85,10.44,61.86,12.1a169.53,169.53,0,0,0,59.89-6.32c19.18-5.46,37.51-13.53,55.45-22.17,36.11-17.39,71.9-36.25,104.24-60.1q5.65-4.17,11.16-8.55c1.51-1.2-.62-3.31-2.12-2.12-30.93,24.55-65.62,43.78-100.86,61.34s-72.33,35-112.43,35.45c-20.78.24-41.31-3.7-61.4-8.66-18.35-4.53-36.68-9.45-54.78-15-34.18-10.4-67.42-24.58-92.91-50.37-12.61-12.76-24-26.73-39.05-36.74-11.67-7.74-26.46-14.42-33.63-27.1a27.43,27.43,0,0,1-3.23-9.75c-.26-1.91-3.15-1.1-2.89.79Z" transform="translate(-955.9 -44.36)"/>
                <path class="cls-12" d="M1884.09,1049.44c14.45-3.31,25.74-14.47,32.49-27.29,8.32-15.79,10.71-33.9,13.77-51.24q10.17-57.74,20.36-115.46c3.31-18.82,7.34-37.73,8.25-56.86.87-18.48-2.24-36.72-6.91-54.55-2.34-8.93-5-17.76-7.7-26.58-1.36-4.49-2.73-9-4-13.47-1.26-4.3-3.2-9-3.48-13.51-.27-4.28,2.59-7.33,6.36-8.89,3.93-1.65,8.24-1.38,12.4-1.1,7.41.49,14.24.11,20.8-3.71,11.42-6.64,18.35-20,18.87-33,.62-15.55-7.24-30.24-17-41.78a110.48,110.48,0,0,0-8.11-8.51c-1.4-1.33-3.53.79-2.12,2.12,11.33,10.75,21.26,24.24,23.76,40,2.13,13.53-2.9,28.46-14.13,36.75-6.13,4.53-12.86,5.7-20.34,5.22-7.06-.45-15-.93-20.4,4.62-5.84,6-1.7,14.92.29,21.76,2.55,8.72,5.27,17.4,7.85,26.11,5.1,17.29,9.7,34.9,10.83,53,1.19,18.88-2,37.54-5.3,56.06q-10,56.61-20,113.24-2.44,13.88-4.9,27.75a217.73,217.73,0,0,1-5.61,25.36c-4.48,14.77-12.6,29.34-26.47,37.13a38.74,38.74,0,0,1-10.32,4c-1.88.43-1.08,3.32.8,2.89Z" transform="translate(-955.9 -44.36)"/>
                <path class="cls-12" d="M1972.48,591.22a245.13,245.13,0,0,1-50.87-87.91c-4.91-15-8.79-30.29-15.17-44.72A95.37,95.37,0,0,0,1895,438.82c-4.76-6.18-10.61-12.46-18-15.38a21.69,21.69,0,0,0-21.19,3.34c-5.91,4.69-8.57,12.54-7.49,19.92a21.94,21.94,0,0,0,1.58,5.37c.76,1.77,3.35.24,2.59-1.52a18.28,18.28,0,0,1,23.33-24.36,30,30,0,0,1,10,6.79,67.72,67.72,0,0,1,7.33,8.27A96.21,96.21,0,0,1,1904,460.46c6.1,13.9,9.83,28.69,14.53,43.08a251.22,251.22,0,0,0,19.59,44.87,248.71,248.71,0,0,0,28.12,40.26c1.35,1.57,2.73,3.13,4.12,4.68s3.41-.69,2.12-2.13Z" transform="translate(-955.9 -44.36)"/>
                <path class="cls-12" d="M1218.18,797.62l-22.66,7.8-11.33,3.89c-3.51,1.21-7.11,2.28-10.53,3.71-2.87,1.21-5.47,3-6.79,5.91a15.59,15.59,0,0,0-.7,9,62.66,62.66,0,0,0,5.29,15.61c9,19.58,25,34.76,40.94,48.77,16.44,14.49,34,28.42,46.93,46.28,15.7,21.61,21.3,50.07,41.87,68.18a49.93,49.93,0,0,0,15.47,9.49,44.07,44.07,0,0,0,19.75,2.43c14.1-1.41,27.07-8.27,38.86-15.73,3-1.91,6-3.89,9-5.9,1.58-1.07.08-3.67-1.52-2.59-11.5,7.81-23.55,15.62-37.06,19.41a48,48,0,0,1-19.83,1.64,41.54,41.54,0,0,1-16.75-6.47c-22.87-15-29.15-43.8-42.91-65.71-11.46-18.25-28-32.54-44.08-46.54-15.72-13.68-32.13-27.57-43.1-45.55a83.64,83.64,0,0,1-6.83-13.73,75.38,75.38,0,0,1-2.42-7.36c-.77-2.88-1.37-6.09-.49-9s3.55-4.59,6.33-5.65c3.41-1.3,6.91-2.4,10.36-3.59l22.19-7.63,10.86-3.74c1.81-.62,1-3.52-.8-2.89Z" transform="translate(-955.9 -44.36)"/>
                <path class="cls-12" d="M1222.6,782.51c-25.19-11.19-50.46-22.69-73.44-38.06a189.56,189.56,0,0,1-31.11-25.59,150.18,150.18,0,0,1-23.16-31.69c-6-10.67-11.41-21.74-19-31.36a55.46,55.46,0,0,0-12.71-12,40.76,40.76,0,0,0-17.68-6.36c-8.24-1-16.54.16-24.8-.11a53.06,53.06,0,0,1-19-4.17C990,628.23,980.2,619.4,973.11,609c-17.59-25.78-16.44-58.67-8.93-87.74,1-3.93,2.16-7.83,3.38-11.71.59-1.84-2.31-2.63-2.89-.8-9.36,29.55-14,63.65.38,92.43a76.11,76.11,0,0,0,24.85,29,59.74,59.74,0,0,0,17.15,8.12c7,2,14.15,2.26,21.39,2,8.13-.25,16.43-.8,24.29,1.77a39.63,39.63,0,0,1,14.41,8.68c9,8.3,15,19.36,20.79,30,3,5.45,5.91,10.93,9.18,16.21a137.64,137.64,0,0,0,12.1,16.61A173.23,173.23,0,0,0,1139,741c22.34,16.48,47.53,28.61,72.75,40l9.35,4.18c1.74.77,3.27-1.81,1.51-2.6Z" transform="translate(-955.9 -44.36)"/>
                <path class="cls-12" d="M968,509.68c-1.86-26.13,12.79-49.4,17.93-74.32,2.44-11.81,2.41-23.9-2-35.26S972,378.92,966.71,368c-2.75-5.63-4.92-11.69-5.23-18-.35-7.15,1.82-14,5.09-20.25,6.26-12,15.06-23.07,24-33.22,17.62-20.05,38.54-37,61.14-51.14C1101.89,214,1159.42,197.55,1217,186c15.31-3.06,30.67-5.8,46.06-8.41,14.09-2.4,28.65-4,42.26-8.58,13-4.36,23.05-12,31.43-22.76,8.19-10.46,15.14-21.66,25-30.75,18.89-17.47,43.39-27.31,67.8-34.3,28-8,56.87-13.43,85.32-19.68l23.37-5.14c1.89-.41,1.09-3.3-.79-2.89-30.43,6.68-61,12.89-91.27,20.24-24.73,6-49.78,13.61-71.22,27.71a113.24,113.24,0,0,0-27.6,25.43c-8.41,10.91-15.49,23.49-27,31.51-11.8,8.21-26.29,11-40.19,13.32-15.26,2.58-30.52,5.1-45.74,7.92-58.87,10.87-118,25.62-170.61,55.11-23.24,13-45.07,28.8-64,47.59A238.52,238.52,0,0,0,974.39,312c-7.84,10.86-16.32,23.19-15.94,37.18.32,11.83,6.44,22.37,12.29,32.28,6.6,11.17,13.14,22.4,13.8,35.69,1.28,26.09-14.19,49.52-18.54,74.68a73.07,73.07,0,0,0-1,17.84c.13,1.91,3.14,1.93,3,0Z" transform="translate(-955.9 -44.36)"/>
                <path class="cls-12" d="M1535.67,51c19.47-7.41,41-1.88,60.62,1.94,20.83,4,41.7,8.49,61.68,15.81,18.61,6.82,36.15,17.28,55.8,21,9.63,1.82,19.17,1.4,28.84.15s19.53-3.08,29.37-2.37a37.77,37.77,0,0,1,23.29,9.64A46.6,46.6,0,0,1,1807,115.67c6,16.64,4.28,34,.8,51-2.1,10.23-4.69,20.37-6.35,30.7a113.61,113.61,0,0,0-1,31c2.42,21.31,10.27,41.55,17.27,61.67l21.85,62.79q5.57,16,11.14,32c3.18,9.19,6.3,18.77,6.26,28.6a33.14,33.14,0,0,1-3,14.08c-.82,1.74,1.76,3.26,2.59,1.52,4.22-8.95,4-18.83,2-28.33-2.2-10.3-6.13-20.21-9.58-30.13L1826.44,306q-5.61-16.11-11.21-32.23a294.91,294.91,0,0,1-9.29-31,115.06,115.06,0,0,1-3-32.13c.65-10.88,3-21.55,5.38-32.15,4-17.83,7.87-35.89,4.21-54.11-3-14.64-10.76-29.34-24.79-35.93-18.34-8.63-38.7-1-57.8-.41-20.74.67-39.45-8.92-58-16.91-19.55-8.41-40-13.92-60.77-18.27-10.51-2.2-21.06-4.31-31.63-6.14-10.06-1.74-20.38-3.05-30.59-1.93a56.78,56.78,0,0,0-14.06,3.31c-1.78.68-1,3.58.8,2.89Z" transform="translate(-955.9 -44.36)"/>
                <path class="cls-12" d="M1217.13,825q6.36,22.75,13.73,45.22,3.65,11.12,7.53,22.14c2.33,6.61,4.58,13.28,7.37,19.71,4.55,10.48,11.91,21.07,24,22.91,4.91.74,10.21.16,14.46-2.56a16,16,0,0,0,7.21-13.8c-.17-16-15.8-24-26-33.55-1.4-1.33-3.53.79-2.12,2.12,8.84,8.32,21.55,14.61,24.6,27.36,1.22,5.13.25,10.71-3.86,14.28-3.49,3-8.47,3.82-12.94,3.33-11.36-1.27-18.16-11.24-22.45-20.88-2.71-6.11-4.83-12.5-7.06-18.79q-3.66-10.34-7.1-20.75-7.8-23.6-14.49-47.53a1.5,1.5,0,0,0-2.89.79Z" transform="translate(-955.9 -44.36)"/>
                <path class="cls-12" d="M1872.92,479.44c7.89,5.31,14.47,12.28,20.43,19.64,6.49,8,12.49,16.44,18.64,24.71l9.83,13.22c3.09,4.15,6.37,8.23,9.11,12.63,2.28,3.69,4.22,7.85,4.2,12.27,0,3.64-1.25,7.53-4.12,9.93-6.25,5.23-16.44-2.24-14.15-9.78.56-1.86-2.34-2.65-2.9-.8-2.3,7.6,5.08,15.92,12.83,15.39,9.08-.61,12.55-11.3,10.87-18.95-1.12-5.1-4-9.62-7-13.8-3.51-4.85-7.13-9.61-10.7-14.41-6.92-9.3-13.73-18.69-20.8-27.87s-14.93-18.18-24.71-24.77c-1.61-1.08-3.11,1.52-1.52,2.59Z" transform="translate(-955.9 -44.36)"/>
                <path class="cls-12" d="M1416.12,397.74c-12.34,6.11-23.39-4.12-29.49-14.15-7.45-12.26-9.28-26.72-10.48-40.76a220.13,220.13,0,0,1,11.65-91.24C1405.87,200,1446,150,1501.84,138.22c46.45-9.78,105.61,17.6,110.66,69.18,3,30.79-13,60.11-33.69,81.71-21.55,22.49-48.51,39.23-74.4,56.19-53.09,34.77-107.56,67.54-164.13,96.34-56.79,28.9-115.74,53.76-176.81,72.09-12.92,3.88-26.27,8.73-39.87,9.31-10,.42-23.44-1.52-26.55-12.87-2.07-7.54,1.21-16.08,3.24-23.33q2.93-10.48,6.47-20.78a382.21,382.21,0,0,1,16.33-40,393.76,393.76,0,0,1,104.66-134.22c21.57-17.78,49.76-36.57,78.8-25.59,12.81,4.85,22.3,16,23.2,29.92s-6.06,27.55-14,38.67c-8.71,12.22-19.78,22.39-31,32.27q-17.44,15.36-36.21,29.15a529.34,529.34,0,0,1-78,47.45q-20.3,10.08-41.41,18.36l1.46,2.51a525,525,0,0,1,160.12-92.22c13-4.68,33.26-13.95,45.43-2.87v-2.12a525.24,525.24,0,0,1-160.38,105.24A525.6,525.6,0,0,1,1124.56,491l1.69,2.2a165.89,165.89,0,0,1,62-63.24c22.79-13.19,49.55-21.49,76-16.16,11.23,2.26,22.16,7.23,29.71,16.07,9.41,11,11.54,26,8,39.78-4,15.61-13.64,29.5-24.23,41.38s-22.78,22.52-35.12,32.57A406.53,406.53,0,0,1,1158,596.74c-24.8,11.55-54.78,20.51-82.18,14.08-13.32-3.12-25.51-10.49-33.44-21.8-8.36-11.93-11.52-26.76-10.85-41.16,1.5-32.33,22.63-59.91,43.92-82.57,21.78-23.19,48.16-44.24,78.77-54.2,27.54-9,62.11-8.18,83.26,14.21,10.51,11.12,14,25.79,8.47,40.22-3,7.78-7.83,14.75-12.79,21.38s-10.38,13.34-15.92,19.71a355.65,355.65,0,0,1-73.47,64.15c-11.77,7.71-24.15,14.32-37.94,17.58-12.09,2.85-26.42,3.24-36.58-5.05-12.27-10-12.59-27.17-11.59-41.67a175.88,175.88,0,0,1,10.17-47c11-30.52,28.93-58.24,49.62-83,19.82-23.77,43.61-46.54,73.7-56.21,24.76-8,55.38-5,75.18,13.1a54,54,0,0,1,17.24,36.26c1,15.16-3.5,30.25-10.14,43.73-13.64,27.72-36.35,50.58-59.86,70.15a336.52,336.52,0,0,1-79.8,49.33,331.36,331.36,0,0,1-43.25,15.49l1.84,1c-5.21-13.06-1.93-27,3.08-39.61,4.9-12.3,11.24-24.15,17.69-35.69a445.12,445.12,0,0,1,43.93-64.6,438,438,0,0,1,53.88-55.41c19.69-16.89,41.48-31.9,65.72-41.46,23-9.05,48.16-12.87,72.63-8.7,22.71,3.86,47.42,15.28,59.45,35.92,14.62,25.07-3,52.27-16.71,73.4a431.76,431.76,0,0,1-45.46,58.34,439.12,439.12,0,0,1-54.81,50q-14.58,11.19-30.08,21.13c-10.4,6.67-21.15,13.63-32.45,18.67-10.25,4.56-23,5.51-30.06-4.74-4.95-7.2-5.71-16.7-5.18-25.17.63-10.16,3.75-19.56,7.54-28.92a291,291,0,0,1,14.31-30.12,320.34,320.34,0,0,1,145.49-135.36,303.43,303.43,0,0,1,31.77-12.56c10.28-3.4,21-6.9,31.79-8.3,9-1.16,20.71-1.23,27.46,5.86,10.19,10.7.09,26-6.53,35.61a358,358,0,0,1-49.13,57.09,361.51,361.51,0,0,1-60.07,45.78c-18.84,11.46-47.64,29.27-67.76,10.73-13.68-12.61-14.92-34.51-13.44-51.83.91-10.71,3.45-21.21,6-31.61q4.3-17.31,9.88-34.27a510.81,510.81,0,0,1,161.09-234.44c19.73-16.11,41.46-32.58,67-37.61,22-4.33,48.63,1.59,60.58,22.16,13.12,22.55,4.64,50.33-9,70.38-7.42,10.87-16.51,20.5-25.78,29.8q-14.25,14.31-29.32,27.73a679.52,679.52,0,0,1-64.14,50.56q-16.34,11.35-33.32,21.74c-5.58,3.41-11.46,7.54-18,8.62-7.33,1.2-12.3-3.39-13.41-10.36-.91-5.69.14-11.67,1-17.28q1.39-8.79,3.6-17.41a211.59,211.59,0,0,1,12.25-34.82,263.1,263.1,0,0,1,40-62.18c16.16-18.94,34.61-36.49,55.42-50.25,20.38-13.49,44.23-23.73,69-23.88,21-.13,42.6,7.3,58,21.69,17.06,15.9,22.78,38.81,16.81,61.21-6.69,25.11-24.26,46.09-42.59,63.79A321.52,321.52,0,0,1,1519.87,324a324.22,324.22,0,0,1-67.4,29.85l1.7.68c-12.67-16.85-4.69-39.75,3.27-56.84a255.63,255.63,0,0,1,31.07-50.41,264.67,264.67,0,0,1,41.26-41.78c15.45-12.51,32.92-24.77,51.56-32,9.38-3.63,20.14-6.14,30.06-3.25A26.47,26.47,0,0,1,1629.31,188c5,16.23-1.57,35-9.21,49.35A310.24,310.24,0,0,1,1495,362.43c-7.13,3.85-22,13.21-25.73.81-2.29-7.68,1-16.22,4.28-23.07a613,613,0,0,1,64.2-104.86,621.15,621.15,0,0,1,84.64-90.9q11.63-10.22,23.75-19.84c8-6.37,16.1-12.91,25.5-17.17,8.93-4.05,20.4-6.53,28.48.65,7.39,6.57,7.44,17.65,5.67,26.63-3.91,19.94-15.16,38.7-27.15,54.8-12.81,17.19-27.93,32.61-43.41,47.4a658.9,658.9,0,0,1-104.76,81.58q-13.73,8.63-27.87,16.56l2,2.05a474.1,474.1,0,0,1,76-107.63,482.92,482.92,0,0,1,102.85-83.21q14.15-8.52,28.86-16c9.92-5.06,22.67-10.92,33.19-4,14.09,9.24,10.15,32.1,5.23,45.25-3.55,9.5-9.13,18.46-14.62,26.94a239.82,239.82,0,0,1-19.68,26.17,296.65,296.65,0,0,1-48,44.22,398.23,398.23,0,0,1-55.77,34.34c-19,9.73-38.74,19.06-59.63,23.88-19.16,4.43-41.68,5.42-58.07-7.29-17.17-13.3-20.25-36.1-17.75-56.38,2.71-22,11.25-43.66,21.87-63a211.87,211.87,0,0,1,41.65-53.3c17.18-15.89,38.2-30.67,62.09-33.32,20.41-2.27,43.35,5.52,53,24.79,10,19.92,1.45,43-9.39,60.67-12.11,19.71-29.1,36-46,51.56a533.28,533.28,0,0,1-116.39,81q-15.53,8-31.55,14.93l2,2.05a363.47,363.47,0,0,1,146-144.9c11.64-6.27,24.78-14,38.44-13.72,6.89.13,13.42,3.11,17,9.2,3.31,5.64,3.62,12.58,2.91,18.93-1.56,14.06-7.9,27.95-14.85,40.1-14.61,25.55-35.88,46.85-58,66a440.86,440.86,0,0,1-75.18,52.29c-24.75,13.65-50.75,25.28-78.35,31.78-25,5.89-51.81,7.95-76.84,1.11-25.8-7.05-47.39-24.23-58.89-48.54s-12.64-53.24-1.88-77.83a102.16,102.16,0,0,1,50.71-51.54,79.66,79.66,0,0,1,35.64-7.28c13.93.53,27.2,5.5,39,12.68,12.35,7.49,23.15,17.21,33.46,27.25,10.46,10.2,21.6,20.78,27.78,34.27,13,28.45-4.54,58.31-23.57,79.12-10.24,11.19-21.91,21-33.78,30.45A458.64,458.64,0,0,1,1385,435.82c-24.49,15.56-52.85,33.2-82.83,33.4-13.57.1-26.92-4.49-36.47-14.35-7.82-8.07-12.2-18.73-14.26-29.64-4.6-24.3,1.26-49.24,9.49-72.08,17.75-49.27,49.8-93.09,90.41-126a284,284,0,0,1,67.29-40.66c14.89-6.35,31.71-12.16,48.11-9.12,12.38,2.3,25,10.61,28.57,23.27,4.36,15.62-6.88,30.39-16.35,41.56s-19.24,21.68-29.56,31.84a493.18,493.18,0,0,1-67.24,55.44A495.78,495.78,0,0,1,1306.93,372c-11.55,5.24-23.3,10.88-36.06,12.24-9.28,1-22,.31-26.79-9.27-3.63-7.36-.5-15.6,2.63-22.52,2.69-6,5.65-11.81,8.83-17.54A255.29,255.29,0,0,1,1278,301.1a265.74,265.74,0,0,1,58.26-54.81,261.92,261.92,0,0,1,34.64-20.17c6.23-3,12.58-5.86,19.07-8.23,7.36-2.69,16.18-5.09,23.69-1.62,11.12,5.13,10.7,18.23,7.52,28.24-4,12.43-12.18,22.45-20.49,32.24A354.49,354.49,0,0,1,1262.93,376c-12.37,5-28.22,10.94-41.17,4.58s-15.87-22.09-16.46-35.05c-1.29-28.29,9.46-55.44,24.91-78.67,16.1-24.21,37.31-45.24,60.39-62.79,23.41-17.79,50.8-33,80.54-35.89,25.13-2.45,56.18,5,68.26,29.72,14,28.57-15.74,53.21-34.49,70.23a924.41,924.41,0,0,1-148.16,109.51q-38,22.61-78,41.51l2.26,1.3c-3.67-34.95,5.26-70.27,23.08-100.37,18.07-30.53,45.25-55.85,77.82-70.2,14.21-6.26,34.39-12.68,48.78-3.45,19.94,12.8,4.54,38.85-5.54,52.6-24.21,33-55.79,59.83-89.34,82.92-16.74,11.52-34,22.19-51.58,32.46-18.2,10.66-36.48,21.52-55.56,30.54-19.91,9.41-41.73,16.61-64,14.94-9.24-.69-20-3.45-25.14-12-5.45-9.11-1.58-20,3.42-28.32,5.19-8.7,12.32-16.05,19.28-23.34s14.14-14.35,21.59-21.15a347.15,347.15,0,0,1,47.46-36.64,255.61,255.61,0,0,1,53.08-26.06c18.46-6.42,38.45-11.25,58.11-10.76,19.25.48,38.08,7.8,47.49,25.53,8.31,15.64,8,34.8,4.67,51.75-3.7,18.59-11.52,36.51-20.92,52.89a212.77,212.77,0,0,1-59,65.85l2.21,1.69a388.82,388.82,0,0,1,59.23-108,404,404,0,0,1,90-85.21,380.08,380.08,0,0,1,53.62-31c15.9-7.49,34.75-12.95,52.46-10.43,8.22,1.17,16.18,4.44,21.84,10.68,7.17,7.9,9.23,18.73,7.35,29-4,22.22-20.61,40.89-35,57.35a423.57,423.57,0,0,1-50,48.46q-13.7,11.27-28.29,21.33c-8.62,5.94-17.35,11.85-27.05,15.91-8.82,3.7-19,6.53-28.61,4.56-10.11-2.08-16.81-10.14-18.44-20.15-1.7-10.39.9-21.22,3.44-31.25a218.29,218.29,0,0,1,9.32-28.33,232.5,232.5,0,0,1,73.9-96.4,225.41,225.41,0,0,1,25.6-16.94q6.57-3.74,13.39-7c5.69-2.72,11.8-5.48,18.24-5.44,10.73.06,19,8.83,22.26,18.49,3.89,11.7.45,24.47-3.71,35.6-15,40-38.31,77.52-65.8,110.1a404.87,404.87,0,0,1-95.3,82.58c-8.75,5.44-17.88,11.64-27.78,14.74-4.48,1.4-9.58,2.37-14.16.88-5.86-1.91-8.24-7.46-8.64-13.21-.78-11.31,2-23.27,5.55-33.93A162.73,162.73,0,0,1,1285.77,429c22.7-37.81,55-70.56,90.75-96.13a349.54,349.54,0,0,1,55.82-32.59c18.23-8.49,37.63-16.66,57.92-18.1,18-1.28,38.39,3.75,44.77,22.79,7.2,21.49-6.69,45.4-17.44,63.2-22.58,37.37-53.81,68.65-87.66,95.87-17.3,13.91-35.38,26.83-53.78,39.24-9.06,6.12-18.21,12.1-27.41,18-8.56,5.51-20.86,15-30.78,7-6.78-5.44-8.39-15.69-8.62-23.84-.27-9.89,1.12-20,2.66-29.78a255.52,255.52,0,0,1,16.82-58.8,267.59,267.59,0,0,1,72.7-99.63,250.94,250.94,0,0,1,25.15-18.86c4.29-2.82,8.64-5.61,13.57-7.18,3.21-1,12.89-2.74,13.27,2.41.18,2.48-.73,5.57-1.12,8q-.63,3.93-1.39,7.85c-.94,4.88-2,9.72-3.3,14.53a243.84,243.84,0,0,1-9.31,28.34A256.86,256.86,0,0,1,1368.18,450,246.44,246.44,0,0,1,1319,483.12l2,2.05a1030.5,1030.5,0,0,1,220.68-224.92q17.76-13.26,36.08-25.75c8.23-5.6,24.93-18.11,33.9-7.44l-.24-1.81c-29.25,69.14-77.59,129.82-137.91,174.44a422.12,422.12,0,0,1-53.13,33.48l2.21,1.69c11.41-34.9,33.63-65.68,62.12-88.71a196.36,196.36,0,0,1,47.79-28.55,184.86,184.86,0,0,1,25.82-8.61c9-2.28,19.84-5.37,28.88-1.91,9.8,3.75,11.66,15.2,8.46,24.15-3.54,9.87-12.87,16.39-21.44,21.64-20.75,12.7-42,24.7-62.94,37-20.8,12.23-41.35,25.11-62.6,36.56-17.89,9.65-39.54,17.34-59.27,8.23-9-4.14-15.56-11.43-18-21.1-2.67-10.45-1.45-22,0-32.54,2.83-20,9.36-39.32,18.24-57.41,18.19-37.08,45.33-69.09,73.9-98.57,14.3-14.75,29.05-29.51,46.44-40.63,16.06-10.28,38-19.63,57.29-14.2,9.5,2.66,16.81,10.13,17.79,20.15.92,9.32-2.83,18.68-7.27,26.67-4.92,8.83-11.36,16.43-18.09,23.92q-10.52,11.7-21.53,23a771.66,771.66,0,0,1-95.8,83.13A775,775,0,0,1,1335,413.14q-13.82,7-27.91,13.45l2.2,1.69a482.78,482.78,0,0,1,57-111.74,497.33,497.33,0,0,1,84.32-94.49,487.78,487.78,0,0,1,57.41-42.82l-2.26-1.3c4,43.15-34.63,76.92-65,101.32A480.59,480.59,0,0,1,1329.47,346a477.06,477.06,0,0,1-69.39,23.63c-1.86.48-1.07,3.37.8,2.89a483.62,483.62,0,0,0,122.37-50.23A482.93,482.93,0,0,0,1438,285.15c17.11-13.38,34-27.71,47.65-44.7,14.24-17.71,25.16-39.2,23-62.52a1.52,1.52,0,0,0-2.26-1.29A498,498,0,0,0,1335,362.29a481,481,0,0,0-28.64,65.2c-.48,1.35,1.13,2.18,2.2,1.69a775.24,775.24,0,0,0,117.6-66.84,777.16,777.16,0,0,0,103.53-85.54q12.09-11.9,23.65-24.33c7.19-7.74,14.61-15.46,20.81-24,9.74-13.46,20.67-34.75,9.55-50.52-11.6-16.44-35.84-13.24-52.26-7.44-20.07,7.08-37.12,20.63-52.43,35.07-31.63,29.83-61.8,63.4-83.63,101.16-10.55,18.24-19.06,37.79-23.91,58.34a166.27,166.27,0,0,0-4.39,31.24c-.42,10.39.62,21.46,7,30.05,11.1,14.8,32,17.72,48.93,13.74,11.23-2.63,21.67-7.86,31.66-13.49,11.25-6.36,22.33-13.05,33.47-19.6l69.07-40.59c16.06-9.44,40.63-19.66,42.81-41,.84-8.24-2.44-16.76-10.22-20.47-8.6-4.11-18.81-2-27.68,0a191,191,0,0,0-53.3,21c-33.39,19.25-61.42,48.25-78.72,82.75a184.73,184.73,0,0,0-10.4,25.32,1.52,1.52,0,0,0,2.21,1.69,426.66,426.66,0,0,0,91.72-65.66,429.1,429.1,0,0,0,71-86.53,411.17,411.17,0,0,0,29.42-56.81,1.59,1.59,0,0,0-.23-1.82c-6.67-7.94-18-4.5-25.9-.43-5.53,2.86-10.58,6.67-15.7,10.19q-8.61,5.94-17.12,12.05-32.89,23.64-63.87,49.82A1033.58,1033.58,0,0,0,1374.78,412q-29.74,34.56-56.32,71.68c-.94,1.31.84,2.67,2,2,38.35-19.59,71.13-49.29,95.15-85a256.1,256.1,0,0,0,28.82-57.06,242,242,0,0,0,8.79-31.25q1.62-7.81,2.71-15.72c.24-1.7,1.14-4.44.66-6.07s-3-2.9-4.39-3.48c-8.66-3.7-18.64,2.17-25.71,6.74a256.77,256.77,0,0,0-26.3,19.52,267.87,267.87,0,0,0-44.34,48.08c-25.36,35.23-42.29,76.64-47.85,119.74-1.25,9.71-2.5,19.82-1.2,29.58,1,7.74,3.79,16.42,10.7,20.89,9.44,6.09,20,.25,28.29-5q14.79-9.47,29.39-19.22c38.8-26,76.63-54.41,108.21-89.08A308.48,308.48,0,0,0,1524,363.21c10.3-18.17,22.09-42.22,12.39-63-8-17.26-27.58-22.14-45.11-21.09-20.84,1.25-40.62,9.44-59.36,18.08a352.41,352.41,0,0,0-111.56,81.4c-16,17.47-30.88,36.64-42.07,57.59a146.62,146.62,0,0,0-13.31,33.61,109.78,109.78,0,0,0-2.87,17.27c-.44,5.25-.73,10.89,1.23,15.89,3.46,8.85,12.78,10.73,21.23,9,10.35-2.13,19.66-8.32,28.56-13.72A404.14,404.14,0,0,0,1367,459a407.61,407.61,0,0,0,86-103.17q8.58-14.72,15.87-30.13c5-10.51,9.94-21.32,13.19-32.49,3.14-10.81,4.28-22.7-.67-33.15-3.85-8.13-11.15-15-20.28-16.35-11.09-1.63-22.24,5-31.65,10a227,227,0,0,0-27.74,17.6,236.91,236.91,0,0,0-45.92,44.93A233.09,233.09,0,0,0,1324.14,371a215.87,215.87,0,0,0-9.91,30.37c-2.48,10.12-4.8,20.87-3,31.3,1.51,9,6.9,17,15.48,20.66s18.45,2.48,27.15-.08c10-2.93,19-7.93,27.67-13.6q15.4-10.09,29.88-21.5a424.35,424.35,0,0,0,53.92-50.58c15.28-17.08,32.68-36.28,38.33-59.12,2.43-9.85,2-20.37-3.14-29.32a34.55,34.55,0,0,0-17.78-14.87c-17-6.51-37.2-2.31-53.67,3.76-19.78,7.29-38.59,18.52-56.18,30a405.91,405.91,0,0,0-133.1,143.16A385.16,385.16,0,0,0,1214,498.57a1.52,1.52,0,0,0,2.21,1.69,216.25,216.25,0,0,0,74.4-97.27c11.8-31.14,17.24-78.18-17.6-97.05-17.93-9.71-39.76-8.24-59.11-4.58a227.37,227.37,0,0,0-58.65,20.08c-37.87,18.8-70.9,46.49-99.55,77.34-11.38,12.24-29.16,32.28-19.08,50.19,9.77,17.36,37,15.38,53.45,12.33,22.91-4.24,44-15.11,64.23-26.35,19.25-10.71,38.35-21.74,57-33.41,36.49-22.81,71.72-48.63,100.31-81a270.25,270.25,0,0,0,19.51-24.75c5.73-8.26,10.89-17.73,12-27.88.92-8.62-2.06-17.28-9-22.69-6.22-4.84-14.4-6.27-22.11-6.08-17.84.44-35.28,8.82-50.25,17.93a174.73,174.73,0,0,0-42.17,36.19c-23.76,28-39.25,63.25-42,100a152.06,152.06,0,0,0,.43,27.24,1.52,1.52,0,0,0,2.25,1.29,928.86,928.86,0,0,0,167.91-102.37c25.61-19.63,50.68-40.41,73.77-63,10.11-9.87,20.36-21.49,23.23-35.76,2.44-12.08-1.28-23.95-9.11-33.29-18-21.45-48.51-25.61-74.6-20.8-30.59,5.64-58.09,22.86-81.74,42.39-23.25,19.19-44.49,41.86-59.33,68.25-13.62,24.23-22.37,53.85-16.47,81.69,2.7,12.72,10.25,24.29,23.82,26.74,14.2,2.56,28.62-3.56,41.43-8.94a356.69,356.69,0,0,0,78-45.12,354.34,354.34,0,0,0,64.11-63.05c7.17-9.15,13.19-19.82,14.67-31.52,1.33-10.44-2.62-20.8-13.27-24.3-13.36-4.4-29,4.11-40.8,9.67a261.31,261.31,0,0,0-37.12,21.35,269.47,269.47,0,0,0-61.12,58.18,256.38,256.38,0,0,0-23,35.84c-5.76,10.88-15.28,25.92-9.28,38.42,4.35,9.06,15,11.54,24.25,11.43,12.33-.16,23.53-4.53,34.68-9.35a498,498,0,0,0,152.57-103.31,423.53,423.53,0,0,0,31.4-34.35c8.81-10.91,17.58-24.59,14.35-39.27-2.67-12.19-13.22-21-24.57-25.07-14.89-5.27-31.37-1.89-45.79,3.28-52.4,18.83-98.64,56-131.45,100.58a285.48,285.48,0,0,0-38.88,72.77c-8.46,23.64-14.24,49.5-9,74.55,2.29,11.07,7.06,21.79,15.07,29.91,9.23,9.35,21.86,14.26,34.88,14.85,15,.68,29.92-3.72,43.6-9.54,14.84-6.3,28.89-14.6,42.51-23.18A462.2,462.2,0,0,0,1425.2,411c12.71-10,25.21-20.54,36-32.61,18.77-21,35.49-50.33,23.9-78.86-5.68-14-16.67-24.93-27.24-35.35s-21.9-20.84-34.67-28.86c-11.83-7.43-25.11-12.73-39.12-13.84a80.49,80.49,0,0,0-36.56,6,104.7,104.7,0,0,0-54,51.4c-11.71,24.59-11.85,53.57-1.53,78.69a93.18,93.18,0,0,0,56.56,52.88c25.62,8.74,53.75,7.46,79.9,1.9,29-6.17,56.31-18.11,82.24-32.26a444.5,444.5,0,0,0,79.32-55.3c23.17-20.24,45.43-43,59.69-70.6,6.3-12.19,12.09-26.13,12.45-40,.3-12.13-5.41-24.09-18.28-26.53-13.36-2.53-26.79,4.29-38.31,10.19a359.65,359.65,0,0,0-38.24,22.67,369.26,369.26,0,0,0-66.68,58.11,360.68,360.68,0,0,0-48.72,68.64,1.51,1.51,0,0,0,2,2,537.48,537.48,0,0,0,127.79-78.37c18.9-15.6,37.73-32.38,53.49-51.22,13.78-16.48,26.7-36.87,27.92-58.92,1.16-21-11.32-38.95-30.76-46.4-21.34-8.17-44.55-2.87-63.85,8.07-20.65,11.71-38.53,29-53.07,47.63a213.53,213.53,0,0,0-33.25,60.63c-7.13,20.31-12.15,43.27-6.44,64.58C1481.07,315,1496.9,328.84,1517,332c20.87,3.32,42.58-2.5,61.88-10.15a416.49,416.49,0,0,0,61.45-30.8c38.65-23.34,74-53.5,98.65-91.69,10.35-16.05,20.24-33.94,19-53.7-.48-7.22-2.61-14.83-8.07-19.89-7.33-6.79-17.7-6.79-26.7-3.72-11,3.75-21.37,10.06-31.42,15.79q-15.33,8.73-30,18.6a487.19,487.19,0,0,0-54.49,42.59A482.34,482.34,0,0,0,1518.59,306q-8.82,14.49-16.56,29.6a1.51,1.51,0,0,0,2,2.05,666,666,0,0,0,115.51-82.27c17.31-15.37,34.14-31.52,49.29-49.05,14.19-16.42,26.84-34.46,34.81-54.76,5.9-15,12.26-40.52-6.88-49.14-8.45-3.81-18.11-1.44-26.19,2.18-9.66,4.32-17.92,11-26.16,17.51A622.09,622.09,0,0,0,1477.23,326c-4.21,8.24-9.33,16.74-11,25.95-1.12,6.11-1.27,14.17,4.15,18.39,7.86,6.12,18.47-1.15,25.62-5a308.35,308.35,0,0,0,27.36-16.6,314.14,314.14,0,0,0,87.85-90.23c10.15-15.87,19.94-32.87,22.26-51.9,2-16.56-3.8-34.07-21.26-39.18-19.86-5.82-41.22,6.67-57.47,16.74a265.8,265.8,0,0,0-87.47,88.72c-10.25,17.08-20.93,36.63-22.5,56.85-.73,9.38,1.1,18.75,6.83,26.37a1.56,1.56,0,0,0,1.69.69,326.74,326.74,0,0,0,135.25-82.46c18-18.34,35-41.09,39.1-67.11a63,63,0,0,0-22.11-58.76c-16.43-13.77-38.44-20.74-59.78-20-25.47.87-49.76,11.69-70.53,25.89-21.59,14.76-40.77,33.37-57.32,53.57a260.55,260.55,0,0,0-39.8,65.52,206.55,206.55,0,0,0-11.37,36.68,169.14,169.14,0,0,0-2.85,17.78c-.49,4.95-.5,10.31,1.57,14.95,5.35,12,19.18,7.68,28,2.62,12.36-7.12,24.34-15,36.11-23.1A685.59,685.59,0,0,0,1497,269.61q15.81-14,30.73-29c9.58-9.64,18.9-19.65,26.48-31,13.39-20,21.06-46.7,9.91-69.5-10.34-21.15-35-29.55-57.3-27.6-26.34,2.31-49.21,17.94-69.4,33.82a501.41,501.41,0,0,0-56.4,51.84,516.37,516.37,0,0,0-86.61,125.72,502.87,502.87,0,0,0-27.91,69.86q-5.76,18.36-10.08,37.14c-2.33,10.21-4.19,20.44-4.45,30.94-.41,17.5,2.88,38.77,18.36,49.53,22,15.28,49.53-2,68.78-13.79a365.79,365.79,0,0,0,62.67-48.49c18.87-18.19,36.71-38.61,50.63-60.9,5.85-9.37,10.94-22.17,3.07-32-5.87-7.31-16.19-8.78-25-8.43-11.12.45-22.09,3.84-32.65,7.11a305.67,305.67,0,0,0-32.72,12.24,323.65,323.65,0,0,0-113.6,83.93,312.14,312.14,0,0,0-40,58.16A293.55,293.55,0,0,0,1197,540.72c-3.66,9.42-6.13,19.16-6.22,29.32-.08,8.44,1.36,17.65,6.69,24.48,6,7.69,15.93,9.78,25.13,7.43,6.58-1.68,12.61-5.09,18.49-8.38s11.47-6.61,17.09-10.11q16.35-10.19,31.76-21.78a440.29,440.29,0,0,0,105.54-113.32c13.51-21,29.9-47.44,17.08-72.57-11-21.59-35.86-34.27-58.69-39-52.67-10.84-103,14.82-142.35,47.85-42,35.29-77.22,79.12-103.43,127.27-6.18,11.34-12.32,23-16.77,35.11s-6.9,25.74-1.93,38.21a1.53,1.53,0,0,0,1.84,1,338,338,0,0,0,91-41.06c27.42-17.68,53.27-39.39,73.88-64.78,18.76-23.11,36.1-54.74,28.95-85.5-6.38-27.46-31.68-43.41-58.44-46.27-30.74-3.29-59.31,11-82.12,30.53-12.8,11-24.11,23.62-34.6,36.79a314,314,0,0,0-28.84,42.52c-16,28.64-27.6,61.6-26.79,94.79.34,14.09,4.87,28.67,18.11,35.64,11.35,6,25.11,4.79,37.08,1.52,14.15-3.85,26.73-11.06,38.83-19.17a361.06,361.06,0,0,0,41-32,356,356,0,0,0,36.38-38.11c10.3-12.54,22.54-26.59,25.45-43.07,5.38-30.51-25.68-51.12-52.2-54.67-32.27-4.32-63.74,9.18-89.48,27.67a252.18,252.18,0,0,0-37.74,33.7c-11.57,12.52-22.51,25.92-30.65,41-14.1,26.06-19.15,60.71-.36,86,17.48,23.5,48.15,26.83,75.06,21.92,32-5.85,62-22.05,89.17-39.29a413.45,413.45,0,0,0,42.77-31.09c13.12-10.89,26.11-22.41,36.9-35.67,17.89-22,32.92-55.4,11.25-80.23-16.44-18.84-45.47-20.67-68.39-16.19-29.08,5.69-56.34,23.31-76.85,44.24a166.66,166.66,0,0,0-26.91,36.2,1.52,1.52,0,0,0,1.69,2.2,529.14,529.14,0,0,0,170.88-88.07,525,525,0,0,0,42.09-36.33,1.51,1.51,0,0,0,0-2.12c-9.93-9.05-24.57-5.9-36.1-2.13-15.26,5-30.26,10.81-45,17.23a526.67,526.67,0,0,0-128.73,80c-1.12.93.07,3,1.46,2.5a531.89,531.89,0,0,0,163.34-101.49c11.13-10.15,21.7-21,29.52-33.94,6.92-11.49,12-25.24,9.17-38.78C1326.26,263,1293.67,255.6,1270,263c-14.79,4.58-27.74,13.51-39.74,23.06a382.25,382.25,0,0,0-33.62,30.24,398.23,398.23,0,0,0-55.75,70.94,390.74,390.74,0,0,0-38.08,81.33q-3.62,10.86-6.57,21.94c-1.86,7-4.14,14.58-1.66,21.68,3.48,9.94,14,13.39,23.68,13.88,13.28.68,26.11-3.56,38.68-7.22q24.6-7.14,48.77-15.68c31.33-11,62.09-23.69,92.25-37.6,61.33-28.27,120.15-61.72,177.19-97.79,27.87-17.62,56.34-35.15,82.32-55.5,24.72-19.35,47-43.7,55.33-74.72,7-25.94,1.6-52.83-16.6-72.82-16.5-18.11-40.49-28.85-64.69-31.16-56.49-5.41-106.11,37.35-131.75,84a222.92,222.92,0,0,0-26.83,91.9,217.34,217.34,0,0,0,1.92,47.27c2,13.39,6,26.42,15.37,36.6,7.27,7.86,17.35,12,27.47,7,1.73-.86.21-3.44-1.52-2.59Z" transform="translate(-955.9 -44.36)"/>
                <path class="cls-12" d="M1275.32,673.88a1.5,1.5,0,0,0,0-3,1.5,1.5,0,0,0,0,3Z" transform="translate(-955.9 -44.36)"/>
                <path class="cls-12" d="M1283.87,665.33c7.16-3.27,12.46-9.23,18.67-13.88a98.42,98.42,0,0,1,19.77-11.16c14.11-6.15,29.06-10.13,43.13-16.37,8.26-3.65,16.23-9,25.34-10.23a1.56,1.56,0,0,0,1.5-1.5,1.5,1.5,0,0,0-1.5-1.5c-8.37,1.09-15.63,5.33-23.12,8.92a213.35,213.35,0,0,1-21.64,8.63c-14.53,5.13-29.52,9.94-42.34,18.73-7.27,5-13.22,12.06-21.32,15.77-1.76.8-.23,3.39,1.51,2.59Z" transform="translate(-955.9 -44.36)"/></g></g></g></svg>