<svg xmlns="http://www.w3.org/2000/svg" xmlns:xlink="http://www.w3.org/1999/xlink" viewBox="0 0 510.54 500"><defs>
                    <style>.cls-25{fill:none;}.cls-26{fill:#141414;}.cls-27{clip-path:url(#clip-path4);}.cls-28{fill:#34be2d;}.cls-29{fill:#ffb400;}.cls-30{fill:#ff7a00;}.cls-31{fill:#f41e34;}.cls-32{fill:#a2359c;}.cls-33{fill:#00a0e2;}.cls-34{font-size:257px;fill:#fff;font-family:HalyardDisplay-Regular, Halyard Display;}.cls-35{letter-spacing:0em;}</style>
                    <clipPath id="clip-path4" transform="translate(5.44)">
                        <rect class="cls-25" y="324" width="500" height="93.36"/>
                    </clipPath>
                </defs>
                <g id="Layer_2" data-name="Layer 2">
                    <g id="skills">
                        <rect class="cls-26" x="5.44" width="500" height="500" rx="25.26"/>
                        <g class="cls-27">
                            <path class="cls-28" d="M505,348.55v21.12H-5.23V331l0-.2q8.06,1.95,16.14,3.77,21.47,4.85,43,8.69,24.07,4.26,48.27,6.89,24.65,2.69,49.37,3.82,19.54.91,39.09.86A794.14,794.14,0,0,0,292,348.11c55.53-7.27,114.1-23.56,170.17-14.55A124.69,124.69,0,0,1,505,348.55Z" transform="translate(5.44)"/>
                            <path class="cls-29" d="M505,354.87V376H-5.44V337.32l0-.2q8.07,2,16.15,3.78,21.48,4.83,43.05,8.69,24.09,4.25,48.29,6.88,24.68,2.67,49.4,3.83,19.54.9,39.11.85a796.62,796.62,0,0,0,101.34-6.71c55.56-7.27,114.16-23.57,170.25-14.56A124.77,124.77,0,0,1,505,354.87Z" transform="translate(5.44)"/>
                            <path class="cls-30" d="M505,361.2v21.11H-5.44V343.64l0-.2q8.07,2,16.15,3.78,21.48,4.83,43.05,8.69,24.09,4.26,48.3,6.89,24.66,2.67,49.39,3.82,19.54.9,39.11.85a796.74,796.74,0,0,0,101.34-6.71c55.56-7.28,114.16-23.56,170.25-14.55A124.35,124.35,0,0,1,505,361.2Z" transform="translate(5.44)"/>
                            <path class="cls-31" d="M505,367.15v21.11H-5.44V349.59l0-.19q8.07,2,16.15,3.77,21.48,4.83,43.05,8.69,24.09,4.25,48.3,6.88,24.66,2.68,49.39,3.83,19.54.9,39.11.86a796.63,796.63,0,0,0,101.34-6.72c55.56-7.27,114.16-23.56,170.25-14.55A124.35,124.35,0,0,1,505,367.15Z" transform="translate(5.44)"/>
                            <path class="cls-32" d="M505,373.09v21.12H-5.44V355.54l0-.19q8.07,1.95,16.15,3.77,21.48,4.83,43.05,8.69,24.09,4.24,48.3,6.88,24.66,2.69,49.39,3.83,19.54.9,39.11.86a796.75,796.75,0,0,0,101.34-6.72c55.56-7.27,114.16-23.57,170.25-14.56A124.77,124.77,0,0,1,505,373.09Z" transform="translate(5.44)"/>
                            <path class="cls-33" d="M505,377.93v21.12H-5.4V360.37l0-.19q8.07,1.95,16.15,3.77,21.48,4.85,43.05,8.69,24.08,4.26,48.28,6.89,24.66,2.67,49.39,3.82,19.55.91,39.1.86a794.61,794.61,0,0,0,101.32-6.72c55.55-7.27,114.15-23.56,170.23-14.55A124.58,124.58,0,0,1,505,377.93Z" transform="translate(5.44)"/>
                            <path class="cls-26" d="M505.1,382v21.12H-5.38V364.39l0-.2q8.07,2,16.15,3.78,21.48,4.84,43.05,8.69,24.09,4.26,48.3,6.89,24.66,2.67,49.39,3.82,19.54.92,39.11.86A794.92,794.92,0,0,0,292,381.51C347.54,374.24,406.14,358,462.23,367A124.35,124.35,0,0,1,505.1,382Z" transform="translate(5.44)"/></g>
                            <text class="cls-34" transform="translate(136.64 277.63)">
                                <tspan class="cls-35">s</tspan><tspan x="111.28" y="0">p</tspan>
                            </text>
                        </g>
                    </g>
                </svg>