 <svg xmlns="http://www.w3.org/2000/svg" xmlns:xlink="http://www.w3.org/1999/xlink" viewBox="0 0 1960.48 194.28"><defs><style>.cls-1{fill:none;}.cls-2{clip-path:url(#clip-path);}.cls-3{fill:#34be2d;}.cls-4{fill:#ffb400;}.cls-5{fill:#ff7a00;}.cls-6{fill:#f41e34;}.cls-7{fill:#a2359c;}.cls-8{fill:#00a0e2;}.cls-9{fill:#141414;}</style>
            <clipPath id="clip-path" width = "3000" height = "251">
             <rect class="cls-1" width="2220" height="251"/>
            </clipPath></defs>
            <g id="Layer_2" data-name="Layer 2"><g id="opening_page" data-name="opening page">
                <g id="RGBSquiggle"><g class="cls-2"><path class="cls-3" d="M1939.19,66v56.78H-20.08v-104l.1-.52q31,5.25,62,10.14,82.41,13,165.23,23.36Q299.7,63.24,392.6,70.31q94.65,7.2,189.59,10.28,75,2.43,150.09,2.31,194.76-.34,389-18.07c213.24-19.54,438.17-63.35,653.46-39.12C1831.62,32.12,1888.47,45.27,1939.19,66Z" transform="translate(20.9 -18.29)"/>
                    <path class="cls-4" d="M1939.34,83v56.77H-20.9v-104l.09-.52q31,5.25,62,10.14,82.46,13,165.33,23.36Q299,80.24,392,87.31q94.71,7.2,189.68,10.27,75,2.43,150.17,2.31Q926.69,99.54,1121,81.83c213.35-19.55,438.39-63.35,653.78-39.12C1831.71,49.11,1888.59,62.26,1939.34,83Z" transform="translate(20.9 -18.29)"/>
                    <path class="cls-5" d="M1939.34,100v56.77H-20.9V52.8l.09-.52q31,5.24,62,10.14,82.46,13,165.32,23.37Q299,97.24,392,104.3q94.71,7.19,189.68,10.28,75.06,2.43,150.17,2.31,194.86-.35,389.14-18.07c213.36-19.54,438.4-63.34,653.79-39.12C1831.71,66.11,1888.59,79.26,1939.34,100Z" transform="translate(20.9 -18.29)"/>
                    <path class="cls-6" d="M1939.34,116v56.77H-20.9V68.8l.09-.52q31,5.25,62,10.14,82.46,13,165.32,23.36Q299,113.23,392,120.3q94.73,7.2,189.69,10.28,75.06,2.44,150.17,2.31,194.86-.34,389.14-18.07c213.36-19.55,438.4-63.35,653.79-39.12C1831.71,82.11,1888.59,95.25,1939.34,116Z" transform="translate(20.9 -18.29)"/>
                    <path class="cls-7" d="M1939.34,132v56.76H-20.9V84.8l.09-.52q31,5.23,62,10.13,82.46,13,165.32,23.37Q299,129.23,392,136.29q94.71,7.2,189.68,10.28,75.06,2.44,150.17,2.31,194.86-.34,389.14-18.06c213.36-19.55,438.4-63.35,653.79-39.12C1831.71,98.11,1888.59,111.25,1939.34,132Z" transform="translate(20.9 -18.29)"/>
                    <path class="cls-8" d="M1939.17,145v56.78H-20.74v-104l.09-.53q31,5.26,62,10.16,82.44,13,165.29,23.35,92.46,11.46,185.4,18.53,94.7,7.19,189.66,10.27,75,2.44,150.14,2.3,194.83-.33,389.08-18.05c213.31-19.56,438.32-63.35,653.67-39.12C1831.56,111.11,1888.43,124.24,1939.17,145Z" transform="translate(20.9 -18.29)"/>
                    <path class="cls-9" d="M1939.57,155.81v56.76H-20.67v-104l.09-.52q31,5.25,62,10.14,82.46,13,165.32,23.36Q299.24,153,392.2,160.11q94.71,7.17,189.68,10.26,75.06,2.44,150.17,2.31,194.87-.33,389.14-18.05c213.36-19.56,438.39-63.36,653.79-39.13C1831.94,121.91,1888.82,135.05,1939.57,155.81Z" transform="translate(20.9 -18.29)"/>
                </g></g></g></g></svg>