<svg xmlns="http://www.w3.org/2000/svg" viewBox="0 0 1067.52 191.84"><defs><style>.cls-1,.cls-10,.cls-11,.cls-12,.cls-13,.cls-9{font-size:166px;font-family:HalyardDisplay-Regular, Halyard Display;}.cls-1{fill:#00a0e2;}.cls-2{letter-spacing:-0.01em;}.cls-3{letter-spacing:-0.03em;}.cls-4{letter-spacing:-0.01em;}.cls-5{letter-spacing:-0.03em;}.cls-6{letter-spacing:0em;}.cls-7{letter-spacing:-0.02em;}.cls-8{letter-spacing:-0.02em;}.cls-9{fill:#34be2d;}.cls-10{fill:#ff7a00;}.cls-11{fill:#ffb400;}.cls-12{fill:#f41e34;}.cls-13{fill:#a2359c;}</style></defs><g id="Layer_2" data-name="Layer 2"><g id="opening_page" data-name="opening page"><g id="RGBShawnPradeep"><text class="cls-1" transform="translate(11.27 147.68)"><tspan class="cls-2">s</tspan><tspan x="71.55" y="0">h</tspan><tspan class="cls-3" x="154.55" y="0">a</tspan><tspan class="cls-4" x="230.74" y="0">w</tspan><tspan x="345.61" y="0">n p</tspan><tspan class="cls-5" x="550.62" y="0">r</tspan><tspan x="599.92" y="0">ad</tspan><tspan class="cls-6" x="770.23" y="0">e</tspan><tspan x="854.39" y="0">e</tspan><tspan class="cls-7" x="938.22" y="0">p</tspan><tspan class="cls-8" x="1024.37" y="0">.</tspan></text><text class="cls-9" transform="translate(8.65 145.75)"><tspan class="cls-2">s</tspan><tspan x="71.55" y="0">h</tspan><tspan class="cls-3" x="154.55" y="0">a</tspan><tspan class="cls-4" x="230.74" y="0">w</tspan><tspan x="345.61" y="0">n p</tspan><tspan class="cls-5" x="550.62" y="0">r</tspan><tspan x="599.92" y="0">ad</tspan><tspan class="cls-6" x="770.23" y="0">e</tspan><tspan x="854.39" y="0">e</tspan><tspan class="cls-7" x="938.22" y="0">p</tspan><tspan class="cls-8" x="1024.37" y="0">.</tspan></text><text class="cls-10" transform="translate(6.65 143.75)"><tspan class="cls-2">s</tspan><tspan x="71.55" y="0">h</tspan><tspan class="cls-3" x="154.55" y="0">a</tspan><tspan class="cls-4" x="230.74" y="0">w</tspan><tspan x="345.61" y="0">n p</tspan><tspan class="cls-5" x="550.62" y="0">r</tspan><tspan x="599.92" y="0">ad</tspan><tspan class="cls-6" x="770.23" y="0">e</tspan><tspan x="854.39" y="0">e</tspan><tspan class="cls-7" x="938.22" y="0">p</tspan><tspan class="cls-8" x="1024.37" y="0">.</tspan></text><text class="cls-11" transform="translate(4.65 141.75)"><tspan class="cls-2">s</tspan><tspan x="71.55" y="0">h</tspan><tspan class="cls-3" x="154.55" y="0">a</tspan><tspan class="cls-4" x="230.74" y="0">w</tspan><tspan x="345.61" y="0">n p</tspan><tspan class="cls-5" x="550.62" y="0">r</tspan><tspan x="599.92" y="0">ad</tspan><tspan class="cls-6" x="770.23" y="0">e</tspan><tspan x="854.39" y="0">e</tspan><tspan class="cls-7" x="938.22" y="0">p</tspan><tspan class="cls-8" x="1024.37" y="0">.</tspan></text><text class="cls-12" transform="translate(2.21 140.11)"><tspan class="cls-2">s</tspan><tspan x="71.55" y="0">h</tspan><tspan class="cls-3" x="154.55" y="0">a</tspan><tspan class="cls-4" x="230.74" y="0">w</tspan><tspan x="345.61" y="0">n p</tspan><tspan class="cls-5" x="550.62" y="0">r</tspan><tspan x="599.92" y="0">ad</tspan><tspan class="cls-6" x="770.23" y="0">e</tspan><tspan x="854.39" y="0">e</tspan><tspan class="cls-7" x="938.22" y="0">p</tspan><tspan class="cls-8" x="1024.37" y="0">.</tspan></text><text class="cls-13" transform="translate(0 138.11)"><tspan class="cls-2">s</tspan><tspan x="71.55" y="0">h</tspan><tspan class="cls-3" x="154.55" y="0">a</tspan><tspan class="cls-4" x="230.74" y="0">w</tspan><tspan x="345.61" y="0">n p</tspan><tspan class="cls-5" x="550.62" y="0">r</tspan><tspan x="599.92" y="0">ad</tspan><tspan class="cls-6" x="770.23" y="0">e</tspan><tspan x="854.39" y="0">e</tspan><tspan class="cls-7" x="938.22" y="0">p</tspan><tspan class="cls-8" x="1024.37" y="0">.</tspan></text></g></g></g></svg>