<svg xmlns="http://www.w3.org/2000/svg" viewBox="0 0 125 125"><defs><style>.cls-1{fill:#f05138;}.cls-2{fill:#fff;}</style></defs><g id="Layer_2" data-name="Layer 2"><g id="misc"><g id="Icons"><g id="Swift"><path class="cls-1" d="M125,34.62c0-1.25,0-2.51,0-3.77a55.17,55.17,0,0,0-.73-8.21,27.67,27.67,0,0,0-2.57-7.81A26.29,26.29,0,0,0,110.16,3.36a27.5,27.5,0,0,0-7.8-2.57A55.17,55.17,0,0,0,94.15.06c-1.26,0-2.52,0-3.77,0H34.62c-1.25,0-2.51,0-3.77,0L28.79.14a47,47,0,0,0-6.15.65,28.32,28.32,0,0,0-5.92,1.7c-.63.26-1.26.55-1.88.87A26.17,26.17,0,0,0,9.7,6.79c-.52.44-1,.91-1.51,1.4a26.11,26.11,0,0,0-4.83,6.64A27.67,27.67,0,0,0,.79,22.64a53.86,53.86,0,0,0-.72,8.21c0,1.26,0,2.52-.06,3.77,0,1.5,0,3,0,4.48V85.9c0,1.49,0,3,0,4.48,0,1.26,0,2.51.06,3.77a53.86,53.86,0,0,0,.72,8.21,27.67,27.67,0,0,0,2.57,7.81,26.29,26.29,0,0,0,11.48,11.47,27.5,27.5,0,0,0,7.8,2.57,55.17,55.17,0,0,0,8.21.73c1.26,0,2.52,0,3.77,0H90.38c1.25,0,2.51,0,3.77,0a55.17,55.17,0,0,0,8.21-.73,27.5,27.5,0,0,0,7.8-2.57,26.29,26.29,0,0,0,11.48-11.47,27.67,27.67,0,0,0,2.57-7.81,55.17,55.17,0,0,0,.73-8.21c0-1.26,0-2.51,0-3.77,0-1.5,0-3,0-4.48V39.1C125,37.61,125,36.12,125,34.62Z"/><path class="cls-2" d="M99.05,77.16h0c.14-.47.28-.94.4-1.42,5.19-20.67-7.47-45.11-28.9-58,9.39,12.73,13.54,28.15,9.85,41.63a33.79,33.79,0,0,1-1.16,3.48c-.47-.31-1.07-.66-1.87-1.11,0,0-21.32-13.16-44.42-36.43-.6-.61,12.32,18.47,27,34C53,55.41,33.76,41.4,21.57,30.24a55.5,55.5,0,0,0,5.23,7.22C37,50.37,50.26,66.3,66.17,78.53c-11.18,6.84-27,7.38-42.69,0A64,64,0,0,1,12.55,72a65.44,65.44,0,0,0,29.38,25.2c14.88,6.39,29.68,6,40.7.1h0l.17-.1c.45-.24.9-.49,1.34-.75,5.29-2.75,15.75-5.53,21.36,5.39C106.87,104.54,109.79,90.37,99.05,77.16Z"/></g></g></g></g></svg>