<svg xmlns="http://www.w3.org/2000/svg" xmlns:xlink="http://www.w3.org/1999/xlink" viewBox="0 0 120.06 119.37"><defs><style>.cls-1{fill:#fff;}.cls-1,.cls-7{fill-rule:evenodd;}.cls-2{mask:url(#mask);}.cls-3{fill:#0065a9;}.cls-4{fill:#007acc;}.cls-5{fill:#1f9cf0;}.cls-6{opacity:0.25;}.cls-7{fill:url(#linear-gradient);}</style><mask id="mask" x="0" y="0" width="120.06" height="119.37" maskUnits="userSpaceOnUse"><g id="mask0"><path class="cls-1" d="M85.16,118.86a7.44,7.44,0,0,0,6-.23l24.7-11.89a7.49,7.49,0,0,0,4.25-6.75V19.38a7.49,7.49,0,0,0-4.25-6.75L91.11.74a7.45,7.45,0,0,0-7.63.69,8,8,0,0,0-.89.76L35.3,45.34,14.7,29.7A5,5,0,0,0,8.32,30L1.71,36a5,5,0,0,0,0,7.4L19.57,59.68,1.7,76a5,5,0,0,0,0,7.4l6.61,6a5,5,0,0,0,6.38.28L35.3,74l47.29,43.15A7.43,7.43,0,0,0,85.16,118.86Zm4.92-86.41L54.2,59.68,90.08,86.92Z"/></g></mask><linearGradient id="linear-gradient" x1="59.99" y1="-2090.97" x2="59.99" y2="-2210.34" gradientTransform="matrix(1, 0, 0, -1, 0, -2090.97)" gradientUnits="userSpaceOnUse"><stop offset="0" stop-color="#fff"/><stop offset="1" stop-color="#fff" stop-opacity="0"/></linearGradient></defs><g id="Layer_2" data-name="Layer 2"><g id="misc"><g class="cls-2"><path class="cls-3" d="M115.81,12.64,91.09.74a7.47,7.47,0,0,0-8.53,1.45L1.63,76a5,5,0,0,0,0,7.4l6.61,6a5,5,0,0,0,6.38.28l97.46-73.94a5,5,0,0,1,8,4V19.4A7.5,7.5,0,0,0,115.81,12.64Z"/><path class="cls-4" d="M115.81,106.72,91.09,118.63a7.49,7.49,0,0,1-8.53-1.45L1.63,43.39a5,5,0,0,1,0-7.4l6.61-6a5,5,0,0,1,6.38-.28l97.46,73.94a5,5,0,0,0,8-4V100A7.49,7.49,0,0,1,115.81,106.72Z"/><path class="cls-5" d="M91.09,118.63a7.49,7.49,0,0,1-8.53-1.45,4.39,4.39,0,0,0,7.5-3.11V5.3a4.39,4.39,0,0,0-7.5-3.11A7.47,7.47,0,0,1,91.09.74l24.72,11.89a7.49,7.49,0,0,1,4.25,6.75V100a7.49,7.49,0,0,1-4.25,6.75Z"/><g class="cls-6"><path class="cls-7" d="M85.09,118.86a7.44,7.44,0,0,0,6-.23l24.7-11.89A7.49,7.49,0,0,0,120,100V19.38a7.49,7.49,0,0,0-4.25-6.75L91,.74a7.45,7.45,0,0,0-7.63.69,6.47,6.47,0,0,0-.9.76L35.22,45.34,14.62,29.7A5,5,0,0,0,8.24,30l-6.6,6a5,5,0,0,0,0,7.4L19.49,59.68,1.63,76a5,5,0,0,0,0,7.4l6.6,6a5,5,0,0,0,6.38.28L35.22,74l47.29,43.15A7.47,7.47,0,0,0,85.09,118.86ZM90,32.45,54.13,59.68,90,86.92Z"/></g></g></g></g></svg>