<svg xmlns="http://www.w3.org/2000/svg" viewBox="0 0 120 116.58"><defs><style>.cls-1{fill:#235ee1;}</style></defs><g id="Layer_2" data-name="Layer 2"><g id="misc"><path class="cls-1" d="M88.39,48.61,89,46.54a215.83,215.83,0,0,1,7-22.15,7.87,7.87,0,0,1,6.84-5.46c2.25-.24,4.63-.45,6.15,1.69a5.69,5.69,0,0,0,3.75,2.44,10.24,10.24,0,0,1,2.25.59c1,.38,1.38,0,1.66-1l2.66-9c1-3.42,1-3.39-2.32-4.57A5.18,5.18,0,0,0,113,9a5.43,5.43,0,0,1-6.38-1.32,18.58,18.58,0,0,0-7-4.52C91.75.43,83.69-.78,75.44.53a25.56,25.56,0,0,0-11.2,4.08,13,13,0,0,0-1.31,1.18,61.23,61.23,0,0,1,13.34.13,10.76,10.76,0,0,1,7.6,3.91c2.07,2.66,2.56,5.8,2.81,9a35.37,35.37,0,0,1-1.69,13L81.15,45.35c-.17.59-.31,1.13.49,1.31l6.73,2ZM67.13,116.55a5.17,5.17,0,0,0,5.07-2.77,14.32,14.32,0,0,0,1.48-3.7L83.56,68.9l4-17.11c.28-1.12,0-1.55-1.07-1.79l-4.35-1.21c-2.66-.8-2.15-.7-2.94,1.5L59.57,106.16a8.32,8.32,0,0,0-.56,2.39c-.18,4.7,3.12,8,8.12,8ZM.1,33.65l.41,3,3,19.9L6.45,76.66l3,20.18,1.91,12.78c.13.9.45,1.32,1.5,1.14l18.86-3,26.92-4.18c.34-.07.62-.49.93-.76-.38-.19-.83-.59-1.17-.56l-14.69,2.22L14,109.14c-1,.17-1.38-.07-1.5-1.07l-1.84-12.9L6.37,66.59,1.69,35.41c-.18-1.14.18-1.66,1.35-1.79l6-.94,24.47-4,41.26-6.78L84,20.34c.38-.06.66-.62,1-.93l-1.25-.48c-.1,0-.24,0-.38.07L71.8,20.93,1.1,32.54c-.86.14-1.31.38-1,1.13ZM98.58,22.18a3.34,3.34,0,0,1-.62,0,11.33,11.33,0,0,0-.32,2.63L99,33.17l3.75,22.53L109,92.6c.14.72,0,1.24-.9,1.38L88.12,97.09l-9.43,1.56c-.27,0-.52.48-.76.76.35.17.66.48,1,.48,1-.07,2-.24,2.94-.38l28.81-4.63L98.56,22.18ZM72.35,65.72a1.28,1.28,0,0,0,.1-2L66,55.9,47.82,34a4.92,4.92,0,0,1-1-2.14A3.27,3.27,0,0,1,49,28.4c1.56-.59,2.9-.17,4.22,1.38L71.07,51.15l4.36,5.15a1.31,1.31,0,0,0,.1-2l-7.15-8.55L54,28.57a4.79,4.79,0,0,0-7-.52c-2.1,1.84-2.21,4.43-.24,6.78l22.39,27,3.25,3.87ZM48.51,51.15a5,5,0,0,0-.83-.56L40.53,48c-.76-.28-1.13,0-1.38.65L26.08,80.72c-.34.8-.1,1.18.63,1.46l6.7,2.76c1.21.55,1.69.28,2.14-.93L48.49,51.14ZM71.28,66l-4.63-5.91c-1.18-1.81-2.49-2.75-4.66-1.81a9.44,9.44,0,0,1-1.66.28L46.45,60.93a1.82,1.82,0,0,0-1.66,1.18L42,69.74a6.85,6.85,0,0,0-.17,1.13L71.26,66ZM32.44,62.92,15.82,65.61l1.07,7.53c.14,1.07.59,1.21,1.56,1.07L27,73a2,2,0,0,0,1.77-1.25L32,64.33c.17-.41.24-.76.45-1.42Z"/><path class="cls-1" d="M93.19,84.48l-10.4-6.33c.13.66.06,1.42.41,1.8a8.42,8.42,0,0,0,2.31,1.8c1.18.65,2.44,1.12,3.63,1.69,1.76.86,3,2.11,3,4.25a3.3,3.3,0,0,0,.31,1.07l.35-.17a1.72,1.72,0,0,0,.24-.31c2.08-3.08,2.21-6.47,1.31-9.94-1-3.87-2.79-7.22-6.56-9.16-1-.52-1.69-.07-2.45.45a2.14,2.14,0,0,0-1,2.39,7.84,7.84,0,0,0,1.38-.94c.86-.9,1.66-.69,2.63-.07,3.8,2.66,6.18,9.37,4.83,13.45ZM23.7,99a1.78,1.78,0,0,0,.41.17L34.48,86.19l-1.18-.62-6.6-2.66c-1-.45-1.35-.14-1.41.93l-.92,8.74L23.72,99ZM46,39.39a4.42,4.42,0,0,0-4.07,2.79L40.32,46c-.35.73-.25,1.18.58,1.46L47.81,50c.83.31,1.18,0,1.49-.69L51,45.36a3.17,3.17,0,0,0-1.18-4.28A26.08,26.08,0,0,0,46,39.39ZM86.52,63.23,95.14,62c.25,0,.56-.66.52-.94l-1.24-6.84a1.38,1.38,0,0,0-1-.83c-1.46.1-2.91.31-4.36.55-.72.11-1.24.45-.83,1.49l4-.48c.31,0,.9.24.94.45l1,5.35-6.43.87c-.76.1-1.45.27-1.21,1.59Zm1.87-14.62-6.71-1.93c-.79-.25-.65-.73-.48-1.32L85,31.82a35.43,35.43,0,0,0,1.69-13c-.28-3.18-.73-6.29-2.81-9a10.77,10.77,0,0,0-7.61-3.9A61.11,61.11,0,0,0,63,5.8c.45-.38.82-.83,1.31-1.18A25.82,25.82,0,0,1,75.48.54C83.78-.77,91.79.48,99.64,3.17a18.06,18.06,0,0,1,7,4.53A5.41,5.41,0,0,0,113,9a5.25,5.25,0,0,1,4.08.07c3.32,1.17,3.32,1.14,2.32,4.56l-2.67,9.05c-.27.94-.65,1.31-1.66,1a10.28,10.28,0,0,0-2.24-.59,5.21,5.21,0,0,1-3.75-2.43c-1.56-2.11-3.91-1.94-6.15-1.7-3.39.38-5.56,2.21-6.85,5.46a220.86,220.86,0,0,0-7,22.15l-.65,2ZM67.13,116.55c-5,0-8.29-3.29-8.12-8a8.32,8.32,0,0,1,.56-2.39l19.66-55.8c.76-2.21.27-2.28,2.93-1.5l4.36,1.21c1.06.24,1.35.69,1.06,1.8l-4,17.1L73.7,110.14a14.07,14.07,0,0,1-1.49,3.69,5.18,5.18,0,0,1-5.06,2.73ZM.1,33.65c-.31-.73.14-1,1-1.13L71.83,21,83.41,19c.14,0,.27-.1.38-.07l1.24.49c-.31.31-.59.86-1,.93L74.77,22,54.9,25.18,33.51,28.7,9,32.68l-6,.93c-1.14.14-1.5.66-1.35,1.8l9,59.75L12.55,108c.14,1,.45,1.25,1.5,1.07l29.72-4.66,14.69-2.21c.34,0,.79.34,1.17.55-.31.27-.59.69-.93.76l-26.88,4.18-18.87,3c-1.07.17-1.38-.24-1.5-1.14L9.55,96.81l-3-20.18L3.57,56.57.1,33.67ZM98.58,22.18,110.74,95,104,96.07l-22,3.53L79,100c-.31,0-.66-.31-1-.48.24-.28.48-.7.76-.76l9.43-1.56,19.9-3.11c.9-.14,1-.66.9-1.38l-2.44-14.38-7.5-45.06-1.38-8.39A11.15,11.15,0,0,1,98,22.23a3.32,3.32,0,0,1,.56,0Z"/><path class="cls-1" d="M72.35,65.72,69.1,61.85l-22.39-27c-2-2.35-1.86-4.9.25-6.77a4.72,4.72,0,0,1,7,.52L75.53,54.24a1.29,1.29,0,0,1-.1,2l-4.36-5.15L53.21,29.76c-1.31-1.56-2.66-2-4.22-1.38a3.21,3.21,0,0,0-2.21,3.42,4.3,4.3,0,0,0,1,2.14L72.46,63.66a1.26,1.26,0,0,1-.11,2ZM48.51,51.15l-.41,1.17L35.53,84.08c-.48,1.21-.93,1.48-2.14.93l-6.7-2.76c-.76-.31-1-.66-.62-1.45L39.13,48.7c.27-.7.62-1,1.38-.66l7.15,2.62a3.07,3.07,0,0,1,.83.49Zm-8.16-1.73-1.66,4.11L28,79.76c-.41,1-.19,1.45.76,1.8l4.08,1.66c1,.51,1.45.31,1.86-.76L46.82,51.77l-6.47-2.35ZM71.28,66,41.87,70.83a6.69,6.69,0,0,1,.18-1.13l2.8-7.63a1.76,1.76,0,0,1,1.66-1.18l13.87-2.38A9.14,9.14,0,0,0,62,58.23c2.18-.86,3.46.07,4.67,1.83C68,62,69.57,63.81,71.3,66ZM43.77,69.14l25-4.13-4.12-5.15a1.63,1.63,0,0,0-1.2-.38L59.88,60l-12.3,2.15c-.52.1-1.28.41-1.45.83-.87,1.93-1.56,3.93-2.35,6.15ZM32.44,62.92,32,64.27l-3.21,7.46A1.88,1.88,0,0,1,27,73l-8.56,1.18c-1,.14-1.42,0-1.56-1.07l-1.07-7.54,16.62-2.62ZM30.3,64.68l-11.75,1.9c-.38.07-1,.69-1,1A33,33,0,0,0,18.24,72a1.2,1.2,0,0,0,.94.62l7-1c.45-.07,1.12-.31,1.28-.66l2.81-6.37Zm62.88,19.8c1.35-4.08-1-10.78-4.83-13.37-.94-.66-1.73-.83-2.63.07a10.89,10.89,0,0,1-1.38.93,2.15,2.15,0,0,1,1-2.39,2.1,2.1,0,0,1,2.45-.45c3.75,1.94,5.56,5.29,6.56,9.16.9,3.46.76,6.85-1.31,9.94l-.24.31c-.07.07-.14.07-.35.17a4.73,4.73,0,0,1-.31-1.07c0-2.14-1.28-3.38-3-4.25l-3.63-1.69A8.36,8.36,0,0,1,83.2,80c-.35-.38-.28-1.14-.41-1.79l10.4,6.23ZM23.7,99l.62-6.38.94-8.74c.1-1.07.38-1.38,1.41-.93l6.6,2.66a13,13,0,0,1,1.18.62L24.08,99.13A2.84,2.84,0,0,1,23.7,99Zm1.76-4a2.29,2.29,0,0,1,.28.07l6.56-8.36-5.7-2.25L25.46,95ZM46,39.39a23.44,23.44,0,0,1,3.81,1.72A3.16,3.16,0,0,1,51,45.39L49.3,49.33c-.27.73-.65,1-1.48.7l-6.91-2.56c-.83-.28-.9-.73-.59-1.45l1.59-3.8A4.38,4.38,0,0,1,46,39.4Zm-4.21,6.87,5.77,2.11c.19.07.69-.25.83-.52l1.35-3.07a1.74,1.74,0,0,0-.59-2.39A11.34,11.34,0,0,0,46,41.11a2.25,2.25,0,0,0-2.7,1.45l-1.5,3.7Zm44.75,17c-.28-1.31.45-1.49,1.21-1.59l6.42-.86-1-5.36c0-.19-.62-.48-.93-.45l-4,.48c-.38-1.07.14-1.38.83-1.48l4.35-.55a1.26,1.26,0,0,1,1,.82l1.25,6.85c0,.27-.31.9-.52.93L86.5,63.23Z"/><path class="cls-1" d="M40.35,49.46l6.46,2.35L34.68,82.49c-.41,1.07-.86,1.28-1.86.76a37.89,37.89,0,0,0-4.08-1.66c-1-.34-1.18-.76-.76-1.79L38.69,53.57l1.66-4.11Zm3.42,19.68L46.09,63c.17-.41.93-.72,1.45-.83l12.3-2.14,3.56-.55a1.61,1.61,0,0,1,1.21.38L68.72,65,43.77,69.14ZM30.3,64.68,27.49,71a1.92,1.92,0,0,1-1.28.66l-7,1a1.11,1.11,0,0,1-.94-.63,31,31,0,0,1-.69-4.45c0-.31.58-.94,1-1l11.75-1.87ZM25.46,95l1.18-10.54,5.7,2.25L25.77,95a1.08,1.08,0,0,1-.31-.07ZM41.77,46.26l1.5-3.66A2.23,2.23,0,0,1,46,41.15a10.19,10.19,0,0,1,3.15,1.28,1.73,1.73,0,0,1,.59,2.38l-1.35,3.08c-.14.24-.63.58-.83.51l-5.77-2.14Z"/></g></g></svg>