<svg width="22" height="22" viewBox="0 0 25 25" fill="none" xmlns="http://www.w3.org/2000/svg">
<g clip-path="url(#clip0_73_259)">
<path d="M12.4994 0.0411987C5.61706 0.0411987 0.0375977 5.62051 0.0375977 12.5028C0.0375977 19.3854 5.61706 24.9643 12.4994 24.9643C19.3824 24.9643 24.9613 19.3854 24.9613 12.5028C24.9613 5.62096 19.3824 0.041794 12.4992 0.041794L12.4994 0.0411987ZM18.2142 18.0144C17.991 18.3805 17.5119 18.4966 17.1458 18.2719C14.2199 16.4847 10.5366 16.0799 6.19876 17.071C5.78075 17.1662 5.36409 16.9043 5.26885 16.4861C5.17316 16.068 5.43403 15.6513 5.85307 15.5561C10.6001 14.4711 14.672 14.9385 17.9568 16.946C18.3229 17.1707 18.4389 17.6483 18.2142 18.0144ZM19.7395 14.6208C19.4583 15.0784 18.8601 15.2227 18.4032 14.9415C15.0535 12.8821 9.94742 12.2858 5.98537 13.4885C5.47153 13.6437 4.92882 13.3541 4.77287 12.8412C4.6181 12.3274 4.90784 11.7857 5.42078 11.6294C9.94653 10.2562 15.5729 10.9214 19.4196 13.2852C19.8764 13.5665 20.0208 14.1646 19.7395 14.6208ZM19.8705 11.0875C15.8541 8.70191 9.22763 8.48257 5.39296 9.64641C4.77718 9.83316 4.12599 9.48554 3.93938 8.86977C3.75278 8.2537 4.1001 7.60295 4.71632 7.41575C9.11825 6.07944 16.436 6.33763 21.0601 9.08272C21.6151 9.41144 21.7967 10.1268 21.4678 10.6799C21.1404 11.2338 20.4232 11.4163 19.8711 11.0875H19.8705Z" fill="#E8E8E8"/>
</g>
<defs>
<clipPath id="clip0_73_259">
<rect width="25" height="25" fill="white"/>
</clipPath>
</defs>
</svg>
